<?xml version="1.0" encoding="UTF-8" standalone="no"?>
<!-- Created with Inkscape (http://www.inkscape.org/) -->

<svg
   xmlns:dc="http://purl.org/dc/elements/1.1/"
   xmlns:cc="http://creativecommons.org/ns#"
   xmlns:rdf="http://www.w3.org/1999/02/22-rdf-syntax-ns#"
   xmlns:svg="http://www.w3.org/2000/svg"
   xmlns="http://www.w3.org/2000/svg"
   xmlns:sodipodi="http://sodipodi.sourceforge.net/DTD/sodipodi-0.dtd"
   xmlns:inkscape="http://www.inkscape.org/namespaces/inkscape"
   width="28.826986mm"
   height="27.819052mm"
   viewBox="0 0 102.14286 98.571443"
   id="svg5067"
   version="1.1"
   inkscape:version="0.91 r13725"
   sodipodi:docname="circle.svg">
  <defs
     id="defs5069" />
  <sodipodi:namedview
     id="base"
     pagecolor="#ffffff"
     bordercolor="#666666"
     borderopacity="1.0"
     inkscape:pageopacity="0.0"
     inkscape:pageshadow="2"
     inkscape:zoom="0.7"
     inkscape:cx="-15.507864"
     inkscape:cy="52.153535"
     inkscape:document-units="px"
     inkscape:current-layer="layer1"
     showgrid="false"
     showguides="false"
     fit-margin-top="0"
     fit-margin-left="0"
     fit-margin-right="0"
     fit-margin-bottom="0"
     inkscape:window-width="1920"
     inkscape:window-height="1018"
     inkscape:window-x="-8"
     inkscape:window-y="-8"
     inkscape:window-maximized="1" />
  <metadata
     id="metadata5072">
    <rdf:RDF>
      <cc:Work
         rdf:about="">
        <dc:format>image/svg+xml</dc:format>
        <dc:type
           rdf:resource="http://purl.org/dc/dcmitype/StillImage" />
        <dc:title></dc:title>
      </cc:Work>
    </rdf:RDF>
  </metadata>
  <g
     inkscape:label="Layer 1"
     inkscape:groupmode="layer"
     id="layer1"
     transform="translate(-5,-124.50507)">
    <ellipse
       style="opacity:1;fill:#2b1100;fill-opacity:1;stroke:none;stroke-width:1.12399995;stroke-miterlimit:100;stroke-dasharray:none;stroke-opacity:1"
       id="path5075"
       cx="56.071434"
       cy="173.79079"
       rx="51.071434"
       ry="49.285721" />
    <path
       style="opacity:0.6;fill:#ffb380;fill-opacity:1;fill-rule:evenodd;stroke:none;stroke-width:1px;stroke-linecap:butt;stroke-linejoin:miter;stroke-opacity:1"
       d="m 37.618026,132.28905 c -7.520487,-0.54722 -25.717105,21.38315 -25.380082,30.80966 -0.705064,-3.28313 -1.260307,20.24567 -1.010154,16.41497 6.680982,23.46789 10.081923,23.89946 19.319168,32.95623 0,0 8.14585,4.50897 2.272843,-2.27284 -4.43185,-9.71764 -10.476797,-25.71034 -11.995562,-35.98669 -0.756824,-5.24495 2.101457,-13.36029 4.16688,-19.1929 1.99566,-4.32274 2.828364,-6.1738 4.264884,-8.45224 2.559851,-4.06014 4.296825,-7.04947 8.362023,-14.27619 z"
       id="path5077"
       inkscape:connector-curvature="0"
       sodipodi:nodetypes="cccccccsc" />
    <path
       style="opacity:0.6;fill:#2b1100;fill-opacity:1;stroke:none;stroke-width:1.12399995;stroke-miterlimit:100;stroke-dasharray:none;stroke-opacity:1"
       id="path5625"
       d="m 10.883923,180.3636 c 0.0076,-0.0865 -0.01962,-0.17242 -0.05026,-0.25217 -0.04157,-0.10135 -0.09601,-0.19681 -0.153912,-0.28958 -0.02482,-0.0404 -0.05107,-0.0798 -0.07707,-0.11938 0,0 0.367978,-0.0206 0.367978,-0.0206 l 0,0 c 0.02388,0.0401 0.04821,0.0798 0.0709,0.12056 0.05468,0.0965 0.106256,0.19471 0.151273,0.2962 0.03096,0.0855 0.05716,0.17414 0.0661,0.26499 0,0 -0.375003,0 -0.375003,0 z"
       inkscape:connector-curvature="0" />
    <path
       style="opacity:0.6;fill:#2b1100;fill-opacity:1;stroke:none;stroke-width:1.12399995;stroke-miterlimit:100;stroke-dasharray:none;stroke-opacity:1"
       id="path5629"
       d="m 10.670378,179.49041 c 0.0068,0.0115 0.01354,0.023 0.02037,0.0345 0.0072,0.012 0.01562,0.0234 0.02163,0.0361 0.0242,0.051 0.03353,0.10742 0.05422,0.15961 0.0089,0.0225 0.02041,0.044 0.03061,0.066 0.03452,0.10041 0.07019,0.20525 0.06413,0.31313 -8.73e-4,0.0156 -0.0039,0.0309 -0.0058,0.0464 -3.36e-4,0.0487 -0.01383,0.0944 -0.03352,0.13837 -0.0099,0.0259 -0.37608,-0.11413 -0.366179,-0.14002 l 0,0 c -0.005,0.0118 -0.0074,0.0251 -0.01353,0.036 -0.0035,-2.7e-4 -0.0079,0.002 -0.01051,-8e-4 -0.01162,-0.0106 -0.03581,-0.0601 -0.03914,-0.0671 -0.03324,-0.0698 -0.05942,-0.14274 -0.07192,-0.21933 -0.0044,-0.0451 -0.006,-0.081 -0.01573,-0.12407 -0.01261,-0.0558 -0.03613,-0.11171 -0.02635,-0.17019 -0.0077,-0.0277 0.384075,-0.13624 0.391749,-0.10854 z"
       inkscape:connector-curvature="0" />
    <path
       style="opacity:0.6;fill:#2b1100;fill-opacity:1;stroke:none;stroke-width:1.12399995;stroke-miterlimit:100;stroke-dasharray:none;stroke-opacity:1"
       id="path5631"
       d="m 10.825554,180.05655 c -0.0057,-0.002 -0.01261,-0.001 -0.01694,-0.005 -0.01185,-0.011 -0.02038,-0.0252 -0.02988,-0.0383 -0.02459,-0.0339 -0.04168,-0.0717 -0.06206,-0.10807 -0.0024,-0.006 -0.0045,-0.0116 -0.0072,-0.0172 -0.0036,-0.007 -0.0088,-0.0137 -0.01252,-0.021 -0.01442,-0.0286 -0.02414,-0.0551 -0.03386,-0.0858 -0.0022,-0.0154 -0.0022,-0.0314 -0.0066,-0.0463 -0.0021,-0.007 0.0013,0.0153 -3.83e-4,0.0227 -4.34e-4,0.002 -0.003,-0.003 -0.0038,-0.004 -0.0024,-0.005 -0.0042,-0.0106 -0.0058,-0.0161 -0.0062,-0.0204 -0.0064,-0.0262 -0.01018,-0.0478 -5.41e-4,-0.006 -0.0047,-0.0501 -0.0041,-0.0555 0.0062,-0.0554 0.02186,-0.13989 0.07928,-0.1686 0.06656,-0.0333 0.144303,-0.0418 0.218641,-0.045 0.02715,-0.001 0.04995,0.0214 0.07493,0.0321 0.0183,0.0124 0.03813,0.0228 0.05489,0.0372 0.05794,0.0498 0.09523,0.11936 0.116101,0.19194 0.0043,0.0149 0.007,0.0302 0.01048,0.0453 -0.0053,0.0162 0.0078,0.0365 0.0041,0.053 -5.5e-4,0.003 -0.0035,-0.009 -0.0028,-0.007 0.0047,0.0164 0.0034,0.0188 0.0056,0.0119 0.02544,0.0513 0.02946,0.10766 0.02509,0.16382 0.0016,-0.0159 0.004,0.007 0.004,0.006 3.71e-4,-0.007 -0.0014,-0.0148 -5.71e-4,-0.0222 6.28e-4,-0.006 0.0069,0.009 0.0094,0.0138 0.0011,0.001 0.0044,0.006 0.0034,0.004 -0.09715,-0.1468 -0.173713,-0.0543 -0.352651,0.0288 -0.04622,0.0215 0.0019,0.0453 -0.01806,0.0347 -0.0055,-0.0257 -0.0086,-0.0518 -0.0091,-0.0781 -0.0031,-0.0291 -0.0058,-0.058 -0.0048,-0.0873 9.34e-4,-0.0278 0.0022,-0.01 2.33e-4,-0.0291 -0.0017,-0.0203 -10e-5,-0.0407 9.57e-4,-0.061 -0.0023,-0.032 -0.0051,-0.064 -0.0051,-0.0961 -6.47e-4,-0.0438 0.0021,0.0137 0.0047,0.0283 5.33e-4,0.003 0.0046,0.008 0.0018,0.009 -0.0029,0.001 -0.0042,-0.005 -0.0063,-0.007 -0.01788,-0.023 -0.03876,-0.0437 -0.05219,-0.0699 -0.01162,-0.0227 -0.01557,-0.0348 -0.02369,-0.0567 -0.0093,-0.0266 0.366566,-0.15809 0.375865,-0.13151 l 0,0 c 0.0055,0.005 -0.0011,-4.6e-4 -0.0018,-0.009 -8.5e-5,-0.001 0.0022,2.6e-4 0.0029,9.9e-4 0.0071,0.007 0.01276,0.0161 0.01945,0.0239 0.0018,0.002 0.0038,0.004 0.0057,0.006 0.05274,0.0563 0.07963,0.12789 0.07886,0.20528 1.28e-4,0.0304 -0.0023,0.0607 -0.0023,0.0911 0.0021,0.0342 0.0028,0.0688 -0.0047,0.10255 -0.0011,0.004 -0.0017,0.008 -0.0034,0.0119 -3.96e-4,8.9e-4 -5.52e-4,-0.002 -6.25e-4,-0.003 -5.77e-4,-0.008 -0.0013,-0.0154 -0.0012,-0.0232 2.3e-5,-0.001 2.22e-4,-0.004 0.001,-0.003 0.0023,0.002 0.003,0.005 0.0045,0.008 0.01995,0.0489 0.02699,0.1 0.02706,0.15261 -0.0015,0.0213 -0.005,0.0949 -0.01795,0.10268 -0.08799,0.0528 -0.184278,0.0996 -0.285843,0.11429 -0.03066,0.004 -0.09335,-0.0826 -0.110211,-0.11499 -0.02816,-0.0544 -0.04005,-0.11497 -0.0367,-0.17606 -8.8e-5,-0.004 4.66e-4,0.008 0.0026,0.004 -0.01478,-0.0374 -0.03034,-0.0746 -0.04744,-0.11096 -0.002,-0.004 -0.01002,-0.0218 -0.01063,-0.0229 -2.24e-4,-4e-4 -9.18e-4,8.1e-4 -0.0013,5.1e-4 -0.0024,-0.002 -0.0046,-0.005 -0.0063,-0.007 -0.0019,-0.003 0.01603,0.0143 0.0099,0.004 0.07997,0.0315 0.08406,0.0406 0.216379,-0.0352 0.02716,-0.0155 0.03346,-0.0534 0.04456,-0.0826 0.0054,-0.0143 0.0028,-0.0305 0.0041,-0.0458 -4.09e-4,7e-5 -8.19e-4,1.4e-4 -0.0012,2.1e-4 1.06e-4,-1.2e-4 2.11e-4,-2.3e-4 3.16e-4,-3.5e-4 0.0061,0.0182 0.02538,0.13929 0.0096,0.0537 -0.02019,-0.0636 -0.0061,-0.008 -0.0066,-0.026 -7.3e-5,-0.003 -0.0036,-0.009 -8.14e-4,-0.008 0.01173,0.001 0.03911,0.0461 0.05198,0.053 0.02883,0.0387 0.0612,0.0787 0.08194,0.1226 0.0097,0.0205 0.0087,0.0451 0.02217,0.0642 0.01202,0.0258 -0.352761,0.19579 -0.364781,0.16999 z"
       inkscape:connector-curvature="0" />
    <path
       style="opacity:0.6;fill:#2b1100;fill-opacity:1;stroke:none;stroke-width:1.12399995;stroke-miterlimit:100;stroke-dasharray:none;stroke-opacity:1"
       id="path5639"
       d="m 10.729236,180.40647 c -0.0053,-0.0154 -0.01186,-0.0305 -0.01583,-0.0463 -0.02111,-0.0841 -0.02621,-0.18882 -0.01659,-0.27479 0.0021,-0.0185 0.0067,-0.0367 0.01006,-0.0551 0.007,-0.0298 0.01326,-0.0609 0.02736,-0.0885 0.0028,-0.005 0.0099,-0.0101 0.01169,-0.0155 -0.0096,-0.0273 -0.01329,-0.0566 -0.01523,-0.0854 -0.0062,-0.0411 0.003,-0.0813 0.0066,-0.12195 0.0025,-0.0212 0.0048,-0.0423 0.0018,-0.0635 -8.47e-4,-0.005 -6.55e-4,-0.0103 -0.0025,-0.015 -0.0014,-0.004 2.34e-4,0.0128 -0.003,0.0109 -0.0024,-0.001 -0.009,-0.024 -0.0095,-0.0255 0.001,0.005 0.0081,0.0139 0.0031,0.015 -0.0053,0.001 -0.0059,-0.009 -0.0089,-0.0137 -0.0039,-0.006 -0.0068,-0.0128 -0.01177,-0.0179 -0.0031,-0.003 -0.0089,-0.003 -0.01194,-0.006 -0.008,-0.009 -0.01347,-0.0194 -0.02049,-0.0289 -0.0057,-0.008 -0.01171,-0.015 -0.01757,-0.0226 -0.03925,-0.0503 -0.08011,-0.0989 -0.107711,-0.15696 -0.01146,-0.0241 -0.02374,-0.0606 -0.03268,-0.0858 -0.01275,-0.045 -0.0082,-0.0244 -0.01495,-0.0613 -0.0098,-0.0277 0.382195,-0.16608 0.391978,-0.13836 l 0,0 c 0.01972,0.0276 0.01,0.0136 0.02916,0.0419 0.02091,0.0314 0.04292,0.0618 0.05991,0.0957 0.0072,0.0144 0.01339,0.0292 0.02009,0.0439 0.0045,0.0103 0.0084,0.0208 0.01337,0.0308 0.0055,0.011 0.012,0.0215 0.01799,0.0323 0.02758,0.0502 0.05082,0.10245 0.075,0.1543 0.01835,0.042 0.03394,0.10171 0.02716,0.14721 -0.003,0.0212 -6.27e-4,0.0423 0.0018,0.0635 0.0036,0.0406 0.01281,0.0808 0.0066,0.12196 -0.0019,0.0288 -0.0056,0.0581 -0.01523,0.0854 0.0017,0.005 0.0089,0.0101 0.01169,0.0155 0.0141,0.0275 0.02033,0.0587 0.02736,0.0885 0.0033,0.0183 0.008,0.0365 0.01006,0.0551 0.0096,0.086 0.0045,0.1907 -0.01659,0.27479 -0.004,0.0158 -0.01056,0.0308 -0.01583,0.0463 0,0.0295 -0.41652,0.0295 -0.41652,0 z"
       inkscape:connector-curvature="0" />
    <path
       style="opacity:0.6;fill:#2b1100;fill-opacity:1;stroke:none;stroke-width:1.12399995;stroke-miterlimit:100;stroke-dasharray:none;stroke-opacity:1"
       id="path5641"
       d="m 10.932235,180.29206 c -0.06233,-0.0503 -0.08248,-0.13121 -0.103364,-0.205 -0.0025,-0.0106 -0.0055,-0.0211 -0.0075,-0.0318 -0.0019,-0.0106 -0.0028,-0.0214 -0.0042,-0.0321 -0.006,-0.0436 -0.0074,-0.0352 -0.0061,-0.0679 9.84e-4,-0.0247 -3.58e-4,-0.0262 0.0035,-0.013 0.0019,0.005 0.0056,0.0145 0.0039,0.0195 -8.64e-4,0.003 -0.0032,-0.005 -0.0043,-0.007 -0.0043,-0.01 -0.0085,-0.0196 -0.01187,-0.0297 -0.0058,-0.0174 -0.0099,-0.0354 -0.01528,-0.053 -0.0099,-0.0261 -0.0072,-0.0545 -0.01231,-0.0813 -1.74e-4,-9.2e-4 -0.0019,0.002 -0.0025,0.001 -0.0019,-0.002 -0.0053,-0.0202 -0.0053,-0.0205 -0.0044,-0.0185 -0.0082,-0.0318 -0.0097,-0.0511 6.88e-4,6.9e-4 0.0033,0.005 0.0028,-2e-4 -0.0014,-0.0127 -0.0046,-0.025 -0.0069,-0.0376 2.46e-4,3e-5 0.02588,0.0562 0.0021,0.0502 -0.01637,-0.0231 0.310706,-0.25469 0.32708,-0.23157 l 0,0 c 0.02657,0.0382 0.04673,0.0745 0.05607,0.12164 -6.41e-4,-0.004 -0.002,-0.007 -0.0019,-0.0111 7e-6,-8.8e-4 0.0016,9.5e-4 0.002,0.002 0.0025,0.005 0.0047,0.01 0.0067,0.0152 0.0051,0.0132 0.0084,0.0246 0.01417,0.0369 0.01666,0.0429 0.02421,0.0874 0.02775,0.13312 0.001,0.007 0.0034,0.0133 0.0031,0.02 -1.61e-4,0.004 -0.0076,-0.0122 -0.0066,-0.009 0.0013,0.005 0.004,0.009 0.0056,0.0138 0.0066,0.0189 0.01222,0.0384 0.01797,0.0577 0.01546,0.0737 3.13e-4,0.008 0.0098,0.0402 0.0015,0.005 0.0029,0.0101 0.004,0.0153 2.03e-4,9.9e-4 -0.0021,-0.004 -0.0014,-0.003 0.0093,0.0124 0.0082,0.0127 0.01634,0.0296 0.02967,0.0554 0.05993,0.11183 0.0713,0.1743 0.01087,0.0265 -0.363761,0.18025 -0.374633,0.15376 z"
       inkscape:connector-curvature="0" />
    <path
       style="opacity:0.6;fill:#2b1100;fill-opacity:1;stroke:none;stroke-width:1.12399995;stroke-miterlimit:100;stroke-dasharray:none;stroke-opacity:1"
       id="path5643"
       d="m 10.902348,180.10165 c -0.0143,-0.0407 -0.02143,-0.0963 -0.0142,-0.13965 -0.0014,-0.0174 -6.27e-4,-0.0357 -0.0062,-0.0525 -5.38e-4,-0.002 -0.0016,0.005 -0.0031,0.004 -0.0043,-0.002 -0.0071,-0.007 -0.0095,-0.011 -0.0052,-0.009 -0.0086,-0.0192 -0.01287,-0.0288 -0.01102,-0.0481 -0.04067,-0.0998 -0.03457,-0.15056 8.3e-4,-0.0131 7.9e-4,-0.005 -9.79e-4,-0.0229 -0.0067,-0.0269 0.373752,-0.12168 0.380454,-0.0948 l 0,0 c 0.0085,0.004 0.0028,4.4e-4 0.01163,0.0161 0.0096,0.0217 0.02104,0.0428 0.02818,0.0655 0.01614,0.0512 0.0038,0.0142 0.01181,0.056 0.0011,0.006 0.0032,0.0117 0.0049,0.0175 0.0047,0.0267 0.0089,0.0537 0.01494,0.0801 3.55e-4,0.002 -9.85e-4,-0.006 1.41e-4,-0.005 0.005,0.005 0.0161,0.0322 0.01707,0.0344 0.02743,0.0735 0.0457,0.15521 0.01744,0.23121 0,0.0286 -0.405119,0.0286 -0.405119,0 z"
       inkscape:connector-curvature="0" />
    <path
       style="opacity:0.6;fill:#2b1100;fill-opacity:1;stroke:none;stroke-width:1.12399995;stroke-miterlimit:100;stroke-dasharray:none;stroke-opacity:1"
       id="path5645"
       d="m 10.892612,180.2375 c -0.03047,-0.0819 -0.02837,-0.17211 -0.0207,-0.25792 -0.0013,0.0274 0.01399,-0.10992 0.01747,-0.0841 0.0029,0.0215 5.03e-4,0.011 0.0046,0.026 -0.0017,-0.005 -0.003,-0.009 -0.0058,-0.0153 -0.0022,-0.005 -0.0054,-0.009 -0.0076,-0.0141 -0.01382,-0.031 -0.02052,-0.0627 -0.02561,-0.096 -0.0014,-0.0242 -0.0049,-0.0482 -0.0068,-0.0724 -4.85e-4,-0.006 -6.14e-4,-0.0124 -9.09e-4,-0.0186 -4e-5,-8.4e-4 9.6e-5,0.002 1.44e-4,0.002 -0.0066,-0.0206 -0.0068,-0.0426 -0.01057,-0.0637 -3.04e-4,-0.002 -0.0019,-0.003 -0.0024,-0.005 -0.0013,-0.004 -0.0019,-0.008 -0.0029,-0.0125 -2.34e-4,0.001 2.89e-4,0.005 -7.01e-4,0.004 -0.0018,-0.002 -0.0015,-0.005 -0.0026,-0.007 -0.0023,-0.004 -0.005,-0.009 -0.0076,-0.0129 -0.01338,-0.0216 -0.02186,-0.0448 -0.03151,-0.0683 -0.01272,-0.0343 -0.01756,-0.0705 -0.02031,-0.10685 -0.0039,-0.0517 -0.0048,-0.0154 0.0021,-0.0178 -0.0074,-0.0272 0.377505,-0.13226 0.384932,-0.10504 l 0,0 c 0.01407,0.0369 0.02213,0.0755 0.03424,0.11304 0.01291,0.0453 0.02459,0.0908 0.03757,0.13593 0.0047,0.0277 0.0068,0.0554 0.01679,0.082 0.0028,0.0157 0.01875,0.10368 0.01107,0.1145 -0.02015,-0.0382 0.01052,0.0166 0.01205,0.0179 0.01634,0.0387 0.0181,0.0378 0.02669,0.0834 0.0022,0.0119 0.0018,0.0242 0.004,0.0361 0.0013,0.007 0.0046,0.0131 0.0062,0.0199 0.005,0.0202 0.008,0.0439 0.01109,0.0642 0.0077,0.0858 0.0098,0.17605 -0.0207,0.25792 0,0.0284 -0.402268,0.0284 -0.402268,0 z"
       inkscape:connector-curvature="0" />
    <path
       style="opacity:0.6;fill:#2b1100;fill-opacity:1;stroke:none;stroke-width:1.12399995;stroke-miterlimit:100;stroke-dasharray:none;stroke-opacity:1"
       id="path5647"
       d="m 10.913508,180.12397 c -0.0033,-0.0102 -0.0076,-0.0201 -0.0099,-0.0306 -0.01245,-0.0579 -0.0082,-0.12349 5e-4,-0.18163 0.0019,-0.007 0.0034,-0.015 0.0056,-0.0223 0.0015,-0.005 0.0042,-0.01 0.0055,-0.015 0.0039,-0.0155 0.0025,-0.032 0.0022,-0.0477 -4.64e-4,0.0529 -0.0091,-0.046 -0.01051,-0.0251 -0.0042,-0.002 5.9e-4,0.0142 -0.0031,0.0122 -0.0039,-0.002 -0.0049,-0.007 -0.0072,-0.011 -0.01491,-0.0238 -0.02555,-0.0481 -0.03621,-0.074 -0.01251,-0.0212 -0.01667,-0.0453 -0.02303,-0.0686 -0.0038,-0.014 -0.0083,-0.0262 -0.01154,-0.04 -0.01633,-0.0296 -0.02511,-0.0624 -0.03237,-0.0954 -2.78e-4,0.003 0.0017,0.0119 -8.32e-4,0.01 -0.005,-0.004 -0.005,-0.012 -0.0084,-0.0175 -3.62e-4,-5.8e-4 -0.0012,0.002 -0.0015,0.001 -0.01279,-0.024 -0.01694,-0.0501 -0.03067,-0.0734 -0.02472,-0.0298 -0.02398,-0.0743 -0.04793,-0.10436 -0.03862,-0.032 -0.05804,-0.0785 -0.07875,-0.12293 -0.01417,-0.0217 -0.02679,-0.0444 -0.04064,-0.0663 -0.01389,-0.0256 0.348656,-0.22209 0.362547,-0.19645 l 0,0 c 0.02158,0.0309 0.04163,0.0623 0.05847,0.0961 0.03009,0.0458 0.06216,0.0903 0.0839,0.14105 0.0056,0.0149 0.0097,0.0304 0.01682,0.0447 0.0025,0.005 0.0061,0.009 0.0086,0.0142 0.01333,0.0254 0.02217,0.0526 0.03423,0.0786 0.0019,0.008 0.0056,0.031 0.0097,0.0424 0.0037,0.0105 0.0089,0.0204 0.01242,0.0309 0.0052,0.0155 -2.34e-4,0.0337 0.01092,0.0477 -7.07e-4,-0.004 -0.0016,-0.007 -0.0021,-0.0105 -9.2e-5,-6.8e-4 1e-5,-0.003 4.36e-4,-0.002 0.014,0.0177 0.01799,0.043 0.02815,0.0627 0.0089,0.0194 0.01032,0.0211 0.01755,0.0446 9.38e-4,0.003 4.92e-4,0.006 0.0016,0.009 6.39e-4,0.002 0.0026,0.002 0.0035,0.004 0.0063,0.0104 0.01063,0.0225 0.01523,0.0336 7.92e-4,0.002 0.0092,0.02 0.01123,0.0261 0.0012,0.003 0.0016,0.007 0.0031,0.0105 0.01209,0.027 0.02806,0.0526 0.03214,0.0827 0.0087,0.0381 0.02175,0.0753 0.0217,0.11501 -3.54e-4,0.0157 -0.0018,0.0322 0.0022,0.0477 0.0013,0.005 0.0039,0.01 0.0055,0.015 0.0022,0.007 0.0037,0.0149 0.0056,0.0223 0.0087,0.0581 0.01295,0.12373 4.99e-4,0.18163 -0.0023,0.0105 -0.0066,0.0204 -0.0099,0.0306 0,0.0286 -0.405118,0.0286 -0.405118,0 z"
       inkscape:connector-curvature="0" />
    <path
       style="opacity:0.6;fill:#2b1100;fill-opacity:1;stroke:none;stroke-width:1.12399995;stroke-miterlimit:100;stroke-dasharray:none;stroke-opacity:1"
       id="path5649"
       d="m 10.9118,180.0712 c -0.0069,-0.009 -0.01517,-0.0172 -0.02082,-0.0271 -0.0079,-0.0139 -0.01361,-0.029 -0.01966,-0.0439 -0.02234,-0.0548 -0.03404,-0.10914 -0.04077,-0.1677 -0.01205,-0.0388 0.0063,-0.0356 0.0171,-0.0143 0.0025,0.005 0.01036,0.0171 0.0051,0.0155 -0.0072,-0.002 -0.0089,-0.012 -0.0134,-0.0179 -0.04299,-0.0528 -0.06581,-0.11222 -0.07969,-0.17818 -0.0167,-0.0515 -0.02798,-0.1034 -0.03095,-0.1575 -8.68e-4,-1.4e-4 -0.0022,3.7e-4 -0.0026,-4.2e-4 -0.005,-0.0101 -0.0072,-0.0255 -0.0096,-0.0359 -0.0024,-0.0104 -0.0068,-0.0202 -0.0095,-0.0306 -0.0023,-0.009 -0.0037,-0.0183 -0.0056,-0.0274 -0.01179,-0.0529 -0.0039,-0.10639 -0.0012,-0.15962 0.0021,-0.0367 -8.79e-4,-0.0733 -0.0031,-0.10994 0.0022,-0.0357 0.005,-0.071 0.006,-0.10684 -8.15e-4,0.006 2.16e-4,-0.0462 -0.0048,-0.036 -0.0061,0.0123 -1.7e-4,0.027 -0.01283,-0.003 -0.01061,-0.0271 0.372381,-0.17708 0.382988,-0.15 l 0,0 c 0.0309,0.0615 0.04389,0.12088 0.03539,0.18948 2.59e-4,0.009 -8.9e-5,0.0176 3.71e-4,0.0264 0.0013,0.0248 0.01016,0.0488 0.0087,0.0739 -0.0011,0.049 -0.0023,0.0981 -0.0078,0.14674 -0.0024,0.0179 -0.0056,0.0359 -0.0025,0.0538 0.01216,0.0436 0.02597,0.0869 0.02988,0.13233 0.01823,0.0274 0.01699,0.068 0.03391,0.0965 0.0073,0.0204 0.01828,0.0448 0.01879,0.067 3.6e-5,0.002 -0.003,0.002 -0.0031,0.004 -7.96e-4,0.0173 0.0054,0.007 8.63e-4,0.0137 -0.0096,-0.009 -0.0073,-0.007 0.01172,0.0244 0.0038,0.006 0.0086,0.0118 0.01256,0.0179 0.01465,0.0224 0.0177,0.0288 0.03037,0.0536 0.0036,0.007 0.007,0.0142 0.01046,0.0213 0.03793,0.0715 0.06299,0.14916 0.06073,0.23092 0.007,0.0281 -0.390007,0.12726 -0.397021,0.0992 z"
       inkscape:connector-curvature="0" />
    <path
       style="opacity:0.6;fill:#2b1100;fill-opacity:1;stroke:none;stroke-width:1.12399995;stroke-miterlimit:100;stroke-dasharray:none;stroke-opacity:1"
       id="path5651"
       d="m 10.881452,180.09241 c -0.03474,-0.0844 -0.03284,-0.17807 -0.02551,-0.26753 0.0018,-0.009 0.003,-0.0183 0.0055,-0.0272 0.001,-0.004 0.0079,-0.0184 0.01098,-0.0232 0.001,-0.002 0.0032,-0.006 0.0037,-0.004 0.01293,0.0437 0.01217,0.041 2.4e-5,0.0296 -0.02259,-0.0384 -0.03744,-0.0795 -0.05006,-0.12206 -0.0098,-0.0373 -0.01901,-0.0744 -0.02542,-0.11252 -0.0062,-0.0423 0.0017,-0.0846 0.0032,-0.12678 2.6e-4,-0.004 4.85e-4,-0.008 7.82e-4,-0.0116 0.0015,-0.0198 6.02e-4,-0.007 0.0011,0.005 7.1e-4,0.0168 -0.0019,-0.002 -0.0032,-0.007 -0.01836,-0.053 -0.01673,-0.1078 -0.01386,-0.16272 0.0035,0.0123 0.0025,0.016 0.0077,0.034 0.0016,0.006 0.01211,0.0187 0.0065,0.0166 -0.0063,-0.002 -0.0069,-0.0116 -0.0097,-0.0178 -0.0044,-0.01 -0.0079,-0.0194 -0.01179,-0.0291 -0.0081,-0.0133 -0.0095,-0.0292 -0.01825,-0.0422 -9.07e-4,-0.001 -0.0026,-0.002 -0.0039,-0.003 -0.0025,-0.003 -0.0055,-0.005 -0.0074,-0.008 -0.0051,-0.009 -0.0089,-0.0183 -0.01339,-0.0274 -0.0036,-0.0105 -0.0067,-0.0213 -0.01074,-0.0316 -5.85e-4,-0.001 -0.0021,-0.002 -0.0031,-0.004 -0.0016,-0.004 -0.0033,-0.008 -0.0048,-0.0119 -0.0076,-0.0212 -0.01254,-0.0433 -0.0191,-0.0648 -0.0089,-0.004 -5e-5,4.5e-4 -0.01,-0.0229 -0.0066,-0.0155 -0.01322,-0.0305 -0.01771,-0.0468 -0.0028,-0.009 -0.0057,-0.0179 -0.0085,-0.0268 -0.0077,-0.0272 0.376704,-0.13678 0.384453,-0.10959 l 0,0 c 1.23e-4,-3.2e-4 2.45e-4,-6.4e-4 3.68e-4,-9.5e-4 0.01111,0.0212 0.01148,0.0205 0.02096,0.047 0.007,0.0194 0.0059,0.041 0.01553,0.0597 0.0051,0.0147 -0.0036,-0.0115 0.0098,0.01 0.01223,0.0195 0.02054,0.0407 0.02914,0.062 0.01041,0.0318 0.02276,0.063 0.03203,0.0951 -0.0011,-0.003 -0.0024,-0.006 -0.0034,-0.008 -1.65e-4,-4.7e-4 6.36e-4,7.7e-4 8.65e-4,0.001 0.0059,0.0114 0.01291,0.0222 0.01759,0.0342 0.01335,0.034 0.01598,0.0473 0.01969,0.0796 0.0013,0.0116 0.0022,0.0232 0.0032,0.0348 -8.2e-4,0.0136 1.28e-4,0.0278 -0.0017,0.0414 -4.66e-4,0.003 -6.84e-4,0.012 -0.0034,0.01 -0.002,-0.002 -0.0028,-0.004 -0.0041,-0.007 0.01683,0.0437 0.02336,0.0906 0.01978,0.13735 -0.0019,0.0189 -0.0028,0.0379 -0.0044,0.0567 0.0028,0.0209 0.01402,0.0452 0.01894,0.0675 -5.52e-4,-0.001 -0.0022,-0.005 -0.0017,-0.003 0.0094,0.0192 0.01851,0.0382 0.02299,0.0591 0.02333,0.0639 -0.02956,-0.0825 0.01954,0.0681 0.0011,0.003 0.0043,0.005 0.0061,0.008 0.01478,0.0249 0.02534,0.0522 0.03271,0.0801 0.003,0.0164 0.0069,0.0326 0.0091,0.0491 0.01063,0.0814 0.006,0.16722 -0.02478,0.24386 0,0.0284 -0.402268,0.0284 -0.402268,0 z"
       inkscape:connector-curvature="0" />
    <path
       style="opacity:0.6;fill:#2b1100;fill-opacity:1;stroke:none;stroke-width:1.12399995;stroke-miterlimit:100;stroke-dasharray:none;stroke-opacity:1"
       id="path5655"
       d="m 10.769844,179.75759 c -0.03296,-0.0813 -0.03176,-0.1722 -0.01556,-0.2572 0.0017,-0.005 0.0024,-0.0103 0.0052,-0.0148 0.0059,-0.01 0.01591,0.012 0.01511,0.008 -0.0015,-0.008 -0.0039,-0.0157 -0.0059,-0.0235 -0.0087,-0.0396 -0.01032,-0.08 -0.0084,-0.12032 -0.005,-0.0414 -0.0094,-0.0825 -0.01036,-0.12436 0.0029,-0.0156 2.31e-4,-0.0484 0.0079,-0.0629 8.73e-4,-0.002 0.0021,0.0173 0.0024,0.0125 -0.0016,-0.002 -0.0038,-0.003 -0.0049,-0.005 -0.003,-0.006 -0.0045,-0.0118 -0.0071,-0.0175 -0.0069,-0.0151 -0.01614,-0.029 -0.02246,-0.0443 -0.0081,-0.0196 -0.01354,-0.0401 -0.02054,-0.06 -0.01932,-0.0524 -0.02811,-0.10765 -0.03503,-0.1628 9.64e-4,0.002 0.0019,0.004 0.0029,0.006 -0.0077,-0.0274 0.379327,-0.13585 0.386998,-0.10849 l 0,0 c 0.0042,0.0114 0.0084,0.0228 0.01256,0.0343 0.01271,0.0447 0.03586,0.0861 0.04508,0.13204 0.0038,0.0171 0.0087,0.0339 0.01202,0.0511 0.0049,0.0255 0.0057,0.0516 0.0133,0.0766 0.01051,0.0314 0.01308,0.0514 0.01841,0.0842 0.0033,0.0204 0.0095,0.0404 0.0089,0.0613 -1.51e-4,0.0487 -0.0046,0.0968 -0.01021,0.14518 -2.77e-4,0.005 -0.003,0.0479 -0.0065,0.0496 -0.0015,7.2e-4 -0.0015,-0.003 -0.0023,-0.004 -0.0021,-0.01 -0.0041,-0.0191 -0.0062,-0.0287 -0.0012,-0.005 -0.0054,-0.0102 -0.0035,-0.015 0.0014,-0.004 0.004,0.006 0.0056,0.01 0.0129,0.0262 0.02387,0.0549 0.03166,0.083 0.0036,0.013 0.006,0.0264 0.009,0.0396 0.0162,0.085 0.0174,0.17587 -0.01556,0.2572 0,0.0285 -0.402267,0.0285 -0.402267,0 z"
       inkscape:connector-curvature="0" />
    <path
       style="opacity:0.6;fill:#aa724d;fill-opacity:1;stroke:none;stroke-width:1.12399995;stroke-miterlimit:100;stroke-dasharray:none;stroke-opacity:1"
       id="path5661"
       d="m 12.05269,163.52435 c -0.0062,-0.0204 -0.0021,-0.0407 -3.27e-4,-0.0612 0.0011,-0.0128 0.0012,-0.0245 0.0042,-0.0371 5.11e-4,-6.3e-4 0.0039,-0.004 0.0039,-0.006 1.19e-4,-0.007 -0.0018,-0.0147 -0.0027,-0.0221 -0.0038,-0.0293 -0.0018,-0.0108 -0.0045,-0.0398 -8.41e-4,-0.017 -0.0028,-0.0339 -0.004,-0.0508 -4.32e-4,-0.006 -2.9e-5,-0.0126 -8.31e-4,-0.0188 -6.24e-4,-0.005 -0.0023,-0.01 -0.0034,-0.0142 -4.96e-4,-0.006 -9.93e-4,-0.0119 -0.0015,-0.0178 -4.54e-4,-0.005 -0.0041,-0.0415 -0.0043,-0.0448 -3.56e-4,-0.008 0.0012,-0.0164 4.2e-5,-0.0244 -0.0012,-0.008 -0.0029,-0.0125 -0.0055,-0.0222 -0.007,-0.0381 -0.0087,-0.0775 -0.0038,-0.1159 0.004,-0.0184 0.0053,-0.0257 0.0098,-0.0418 0.0019,-0.007 0.0058,-0.0176 0.0048,-0.0125 -1.54e-4,7.7e-4 -6.45e-4,0.001 -9.67e-4,0.002 -0.0059,-0.0301 9.35e-4,-0.0616 0.0086,-0.0908 0.01338,-0.0367 0.0036,-0.0123 0.01548,-0.038 6.16e-4,-0.001 0.0013,-0.005 0.002,-0.004 0.0011,0.002 1.56e-4,0.005 1.65e-4,0.008 -0.0012,-0.006 0.0013,0.0146 0.001,0.011 -0.003,-0.0374 -0.0022,-0.0515 0.005,-0.0885 0.01244,-0.0332 0.0096,-0.0313 0.02853,-0.0604 0.0028,-0.004 0.0061,-0.008 0.0095,-0.0119 6.55e-4,-7.3e-4 0.0026,-0.002 0.0025,-0.002 -2.96e-4,0.003 -0.0046,0.0106 -0.0032,0.008 0.0017,-0.003 0.0027,-0.006 0.0041,-0.01 0.003,-0.011 -3.48e-4,0.0156 -2.9e-4,0.0181 -0.0038,-0.0221 -0.0013,-0.0451 0.0024,-0.067 0.0019,-0.0109 0.0025,-0.006 0.0012,-0.0123 -0.0082,-0.0309 0.01121,-0.0742 0.02667,-0.10072 0.0067,-0.01 0.01324,-0.0195 0.02007,-0.0291 8e-5,-1.1e-4 -0.01958,0.045 -0.0083,0.0156 0.0025,-0.007 0.0062,-0.0125 0.0093,-0.0187 0.0042,-0.008 0.0028,-0.005 0.0017,-0.002 -0.0016,0.004 -0.0047,0.0131 -0.006,0.0169 -4.68e-4,0.001 -0.0013,0.006 -0.0013,0.004 -6.01e-4,-0.0174 0.004,-0.0363 0.0071,-0.0531 0.0043,-0.0146 0.0093,-0.0289 0.01394,-0.0434 5.12e-4,-0.002 0.0038,-0.0136 0.0036,-0.008 0.0027,-0.028 0.009,-0.0555 0.01469,-0.083 3.8e-4,0.002 0.0124,-0.057 0.01644,-0.044 -9.36e-4,-0.0206 0.0035,-0.0407 0.0056,-0.061 -0.0018,-0.0184 0.006,-0.0355 0.0083,-0.0532 1.7e-4,-0.001 -9.65e-4,-0.002 -0.0011,-0.004 8.48e-4,-0.0259 0.0046,-0.0516 0.0081,-0.0773 0.0051,-0.0129 0.004,-0.0262 0.0051,-0.0394 0.0014,-0.0176 0.0041,-0.0292 0.0073,-0.0471 0.0032,-0.0271 0.01757,-0.0502 0.02714,-0.0751 3.78e-4,-9.8e-4 -8.1e-5,-0.002 2.1e-4,-0.003 0.0013,-0.005 0.0031,-0.009 0.0046,-0.0136 0.006,-0.0141 0.0024,-0.006 0.01022,-0.0248 0.001,-0.003 0.0029,-0.0102 0.0036,-0.007 8.14e-4,0.003 -6.56e-4,0.003 -0.0021,0.003 -0.0015,-0.0398 0.0044,-0.0791 0.01483,-0.11743 3.34e-4,-0.009 0.007,-0.0173 0.0082,-0.0265 2.8e-4,-0.002 -9.14e-4,-0.004 -8.53e-4,-0.006 1.71e-4,-0.006 8.66e-4,-0.012 0.0013,-0.018 7.21e-4,-0.005 0.0019,-0.0101 0.0022,-0.0152 0.0015,-0.0327 -0.0036,0.006 -4.77e-4,-0.0268 0.0019,-0.0196 0.0053,-0.0372 0.0043,-0.0569 0.0017,-0.0393 0.0026,-0.0788 0.01053,-0.11752 0.0041,-0.02 0.0076,-0.0301 0.01321,-0.0488 -0.0022,5.2e-4 0.0084,-0.0281 0.01229,-0.0204 0.0018,0.004 0.0022,0.008 0.0034,0.0115 -0.0032,-0.0194 0.270952,-0.0642 0.274123,-0.0448 l 0,0 c 0.0075,0.031 0.01447,0.0622 0.01246,0.0945 -0.0013,0.0241 -0.0011,0.032 -0.0049,0.0561 -0.0045,0.0277 -0.01248,0.0542 -0.02086,0.0809 -0.002,0.006 -0.0037,0.0127 -0.0055,0.0191 -1.39e-4,5.8e-4 -0.0071,0.0291 -0.0082,0.0346 -0.0014,0.007 -9.14e-4,0.0137 -0.0017,0.0205 -0.0029,0.0245 -0.003,0.007 -0.0023,0.0249 -1.29e-4,0.0393 -0.0041,0.0791 -0.018,0.11604 -9.59e-4,0.002 -0.0017,0.006 -0.0029,0.005 -0.0019,-0.002 -1.5e-4,-0.0115 -6.74e-4,-0.009 -8.62e-4,0.005 -7.5e-5,0.01 -3.62e-4,0.0143 -6.88e-4,0.0114 -0.0018,0.0229 -0.004,0.0341 -0.0025,0.0371 -0.0086,0.0733 -0.02025,0.10872 -0.0082,0.0214 -0.0178,0.0421 -0.02532,0.0636 -0.0038,0.002 -0.0016,2e-4 -0.0024,0.008 -0.0023,0.0219 -0.005,0.0438 -0.0096,0.0654 -0.0039,0.0116 -4.48e-4,2e-5 -0.0034,0.0209 -0.0021,0.0149 -0.0075,0.0282 -0.0074,0.0433 -0.0021,0.0134 -0.0036,0.0285 -0.009,0.0411 -1.5e-4,3.4e-4 -3.41e-4,-6.8e-4 -5.12e-4,-0.001 3.2e-5,-0.003 6.4e-5,-0.007 9.5e-5,-0.0102 -3.66e-4,0.004 -1.47e-4,0.008 -2.21e-4,0.0115 -5.67e-4,0.0134 -0.001,0.027 -0.0027,0.0403 0.0023,0.0377 1.92e-4,0.0764 -0.01299,0.11218 -0.0072,0.0243 -0.01642,0.0478 -0.02275,0.0724 -0.0032,0.0156 -0.0058,0.0324 -0.01325,0.0468 -4.58e-4,8.9e-4 -0.0018,0.001 -0.0023,0.002 -8.28e-4,0.002 -9.98e-4,0.008 -0.0017,0.005 1.32e-4,-0.002 4.02e-4,-0.009 3.94e-4,-0.007 -1.08e-4,0.0328 -0.006,0.0656 -0.01863,0.096 -4.16e-4,8.2e-4 -0.01197,0.0257 -0.01657,0.0289 -0.0015,0.001 0.0012,-0.007 1.49e-4,-0.006 -0.0053,0.008 -0.0086,0.0168 -0.01348,0.0248 -0.0026,0.004 -0.01047,0.017 -0.0091,0.0122 0.0021,-0.007 0.0075,-0.0132 0.01129,-0.0199 -0.0013,0.006 0.0027,-0.007 0.0041,-0.0178 1.41e-4,-0.001 -8.07e-4,0.002 -9.47e-4,0.003 -0.0046,0.036 0.0019,-0.002 -0.0051,0.0359 -0.0011,0.005 -0.0023,0.01 -0.0034,0.0149 -0.0027,0.0114 -0.0015,0.001 -0.0018,-0.004 -7.93e-4,-0.0122 -0.003,-0.0222 0.0013,0.002 0.0049,0.0446 0.0014,0.0894 -0.02078,0.12942 -0.01045,0.0146 -0.01626,0.0315 -0.0272,0.0459 -0.0012,0.002 -0.004,0.006 -0.0044,0.004 -0.0015,-0.009 0.01047,-0.0175 0.0062,-0.0271 0.0023,-0.0385 0.0018,-0.001 -5.06e-4,-0.012 -4.97e-4,-0.002 -0.0018,-0.009 -0.0014,-0.007 0.0052,0.033 0.0027,0.008 0.0052,0.045 -0.0012,0.0263 -0.0035,0.0506 -0.01258,0.0756 -0.0027,0.007 -0.006,0.0145 -0.0094,0.0215 -0.0016,0.003 -0.0028,0.007 -0.0055,0.009 -8.42e-4,7.3e-4 -0.0015,-0.002 -0.0023,-0.002 3.05e-4,-0.0176 2.81e-4,-0.006 -0.0011,-0.0355 5.8e-5,-0.003 0.0011,0.007 0.0015,0.01 0.0022,0.0162 0.0033,0.0324 0.0024,0.0488 -0.002,0.0189 -0.0037,0.0376 -0.0083,0.0561 -0.001,0.004 -0.0022,0.008 -0.0036,0.012 -7.27e-4,0.002 -0.0012,0.007 -0.0028,0.006 -0.0019,-0.002 3.74e-4,-0.005 5.61e-4,-0.008 -6.85e-4,0.006 -7.65e-4,0.007 -0.0013,0.007 -0.0012,-7.9e-4 -8.59e-4,-0.005 2.05e-4,-0.004 0.0022,0.002 0.0067,0.0146 0.0067,0.0147 0.0041,0.0134 0.0092,0.0265 0.01274,0.04 0.0087,0.033 0.01297,0.0666 0.01501,0.10058 6.91e-4,0.009 0.002,0.0188 0.0021,0.0283 1.52e-4,0.0302 -0.0041,0.0609 -0.01155,0.0901 -0.0024,-1.8e-4 -0.0033,2.7e-4 -0.0028,-0.004 8.5e-5,-7.4e-4 0.0011,0.001 0.0014,0.002 0.0012,0.003 0.0022,0.005 0.0032,0.008 0.008,0.0211 0.0062,0.0168 0.01397,0.0409 0.0019,0.009 0.0045,0.0188 0.0058,0.0283 0.0069,0.0519 -4.9e-4,0.1062 -0.02604,0.15219 -0.0041,0.0197 -0.283047,-0.0385 -0.27893,-0.0582 z"
       inkscape:connector-curvature="0" />
    <path
       style="opacity:0.6;fill:#aa724d;fill-opacity:1;stroke:none;stroke-width:1.12399995;stroke-miterlimit:100;stroke-dasharray:none;stroke-opacity:1"
       id="path5663"
       d="m 12.063914,163.20735 c -0.0024,-0.007 -0.0054,-0.0145 -0.0071,-0.022 -0.0024,-0.0106 -0.0036,-0.0214 -0.0053,-0.0321 -0.0041,-0.0271 -0.01002,-0.0682 -0.01172,-0.0946 -0.0028,-0.044 -9.64e-4,-0.0654 6.58e-4,-0.10906 0.0041,-0.0358 0.0095,-0.0717 0.01928,-0.10649 0.0032,-0.0115 0.0071,-0.0236 0.01417,-0.0334 0.0048,-0.0151 -0.0012,-0.0302 -0.003,-0.0453 -0.0051,-0.03 -0.0038,-0.0602 -0.0035,-0.0905 1.35e-4,-0.0518 0.01622,-0.0996 0.03725,-0.14609 -0.0032,-0.011 0.01997,-0.0383 0.0173,-0.0499 -0.0059,-0.0316 -0.0018,-0.0653 0.0032,-0.0969 0.0013,-0.0216 0.0053,-0.0431 0.011,-0.064 0.0015,-0.005 0.0039,-0.0106 0.0054,-0.0161 5.7e-4,-0.002 5.08e-4,-0.004 7.62e-4,-0.006 0.0021,-0.006 0.0042,-0.0124 0.0063,-0.0186 0.0086,-0.0195 0.0029,-0.041 0.0056,-0.0615 0.0016,-0.012 0.0045,-0.0237 0.0068,-0.0356 0.0021,-0.009 0.01279,-0.0537 0.01422,-0.0635 0.0018,-0.0126 0.0021,-0.0253 0.0034,-0.0379 0.0033,-0.0306 0.0082,-0.07 0.01462,-0.0996 0.0042,-0.0194 0.01006,-0.0384 0.0151,-0.0576 0.0136,-0.0549 0.03177,-0.10842 0.04957,-0.16206 0.0055,-0.0166 0.0118,-0.0329 0.01609,-0.0498 0.005,-0.0196 0.0073,-0.0399 0.01164,-0.0597 0.0044,-0.0201 0.0097,-0.04 0.0145,-0.06 0.0058,-0.0204 0.01102,-0.041 0.01728,-0.0613 0.01046,-0.0339 0.02306,-0.0671 0.0338,-0.10097 0.03742,-0.11786 -0.01209,0.0361 0.02595,-0.0917 0.0039,-0.0132 0.0089,-0.0261 0.01328,-0.0391 0.0036,-0.0116 0.008,-0.0229 0.01092,-0.0347 0.0042,-0.0172 0.0058,-0.0442 0.0081,-0.0612 0.0053,-0.04 0.01155,-0.0798 0.01959,-0.11929 0.0017,-0.0106 0.0033,-0.0212 0.0051,-0.0318 0.0026,-0.0158 0.0061,-0.0349 0.0084,-0.0509 0.0031,-0.0213 0.0045,-0.0425 0.0086,-0.0637 0.0022,-0.0125 0.0044,-0.025 0.0066,-0.0375 0.0033,-0.0204 0.291665,0.0266 0.288346,0.047 l 0,0 c 1.7e-4,-0.002 3.41e-4,-0.004 5.12e-4,-0.006 0.01233,0.0619 0.01202,0.12629 0.0032,0.18861 -0.01213,0.089 0.0026,-0.0128 -0.01241,0.0728 -0.0093,0.0533 -0.01343,0.10749 -0.02322,0.16073 -0.01584,0.11367 0.0054,-0.0314 -0.01498,0.0845 -0.01358,0.0771 -0.01892,0.15629 -0.04625,0.23042 -0.0071,0.0208 -0.01414,0.0417 -0.02121,0.0625 -0.0078,0.0183 -0.01673,0.0361 -0.02337,0.0548 -0.0056,0.0159 -0.0091,0.0324 -0.01334,0.0487 -0.01369,0.053 -0.02502,0.10671 -0.04275,0.15863 -0.01541,0.0536 -0.03141,0.10713 -0.05375,0.1584 -0.0061,0.0141 -0.01373,0.0275 -0.02039,0.0414 -0.03098,0.0645 0.0014,-6.7e-4 -0.02154,0.0452 -0.009,0.0164 -0.01151,0.0341 -0.01622,0.0521 -0.0045,0.0173 -0.0089,0.0346 -0.01294,0.052 -0.003,0.0125 -0.0058,0.0256 -0.01085,0.0374 -4.91e-4,0.001 -0.0019,0.002 -0.0023,0.003 -0.0047,0.0124 8.36e-4,0.005 -0.0037,0.0105 5.24e-4,0.0251 2.8e-5,0.0501 9.83e-4,0.0752 -2e-5,0.045 -0.0035,0.0912 -0.02462,0.1319 -0.0026,0.01 -0.01689,0.0698 -0.02554,0.0699 -0.0012,1e-5 -0.0016,-0.002 -0.0024,-0.003 5.44e-4,0.0318 0.002,0.0636 -0.0037,0.095 -3.53e-4,0.003 -0.0045,0.0292 -0.0065,0.0292 -8.1e-4,1e-5 0.0026,-0.006 0.0024,1.6e-4 0.028,0.0451 0.03068,0.10265 0.03927,0.15334 5.09e-4,0.0188 0.0018,0.0377 0.0015,0.0565 -8.01e-4,0.0635 -0.01113,0.1394 -0.03145,0.20004 -0.0031,0.009 -0.0076,0.0177 -0.01132,0.0266 -0.0019,0.0202 -0.287217,-0.006 -0.285336,-0.0266 z"
       inkscape:connector-curvature="0" />
    <path
       style="opacity:0.6;fill:#aa724d;fill-opacity:1;stroke:none;stroke-width:1.12399995;stroke-miterlimit:100;stroke-dasharray:none;stroke-opacity:1"
       id="path5669"
       d="m 11.988952,163.28896 c -0.0032,-0.0119 -0.0076,-0.0236 -0.0096,-0.0358 -0.01429,-0.0831 -3.47e-4,-0.16921 0.01442,-0.25102 0.01434,-0.0525 0.03165,-0.10493 0.05502,-0.15427 0.0078,-0.0164 0.01712,-0.0304 0.02672,-0.0458 0.01919,-0.0236 0.0017,-0.008 0.01213,-0.0105 7.13e-4,-1.6e-4 0.0016,-0.002 0.0017,-0.001 3.47e-4,0.007 -0.01134,0.0714 0.0024,-0.016 0.0074,-0.017 0.0015,-0.0354 0.0047,-0.0528 0.0022,-0.012 0.0064,-0.0236 0.0097,-0.0354 0.01014,-0.0368 0.02114,-0.0733 0.03221,-0.10975 0.0072,-0.0323 0.01229,-0.0557 0.02057,-0.0885 0.0044,-0.0175 0.01046,-0.0346 0.01386,-0.0523 0.0042,-0.0217 0.0055,-0.0438 0.0088,-0.0656 0.01221,-0.08 0.01209,-0.0725 0.03063,-0.15327 0.0092,-0.0479 0.02998,-0.0927 0.04066,-0.14018 0.0053,-0.0237 0.0075,-0.048 0.01141,-0.0719 0.01007,-0.062 0.01984,-0.12383 0.02827,-0.18606 0.001,-0.0375 0.01423,-0.0747 0.01293,-0.11238 -4.11e-4,-0.0119 -0.0035,-0.0237 -0.0045,-0.0356 -0.0018,-0.0216 -0.0013,-0.044 -0.0012,-0.0656 0.0015,-0.0387 8.3e-5,-0.0199 0.0039,-0.0563 -1.48e-4,-0.0211 0.298494,-0.0232 0.298641,-0.002 l 0,0 c 0.0045,0.0208 0.0022,0.01 0.007,0.0337 0.0024,0.0107 0.0104,0.0467 0.01188,0.0556 0.002,0.012 0.0023,0.0243 0.0047,0.0362 0.0029,0.0143 0.0079,0.0282 0.01136,0.0424 0.01454,0.0604 0.01131,0.0509 0.01922,0.11691 0.0019,0.0694 0.0044,0.0829 -0.0029,0.1537 -0.01038,0.10111 -0.01064,0.0626 -0.03027,0.16114 -0.04841,0.24307 0.02643,-0.0962 -0.0305,0.15629 -0.0083,0.0266 -0.01565,0.0535 -0.02482,0.0798 -0.04251,0.12193 -0.01376,0.0294 -0.05835,0.13824 -0.0067,0.0162 -0.01128,0.0332 -0.01707,0.0498 -0.01159,0.0331 -0.02388,0.066 -0.03516,0.0993 -0.03498,0.088 8.55e-4,1e-5 -0.03319,0.078 -0.0215,0.0492 -0.0084,0.0268 -0.03189,0.0662 -0.0062,0.0104 -0.01084,0.022 -0.01891,0.0309 -0.0026,0.003 -0.0075,0.002 -0.0113,0.003 1.78e-4,-0.006 0.0039,-0.0252 5.35e-4,-0.0196 -0.004,0.007 -0.0014,0.0154 -0.0026,0.023 -0.003,0.0189 -0.0098,0.0371 -0.01127,0.0563 6.77e-4,0.0151 -0.004,0.0296 -0.0066,0.0444 -0.0053,0.0312 -0.0093,0.0626 -0.01214,0.0941 -0.0056,0.0463 -0.0094,0.0924 -0.01776,0.13837 -0.0057,0.0316 -0.0087,0.0519 -0.02045,0.081 -0.0034,0.008 -0.0082,0.0159 -0.01237,0.0239 0,0.0205 -0.290493,0.0205 -0.290493,0 z"
       inkscape:connector-curvature="0" />
    <path
       style="opacity:0.6;fill:#aa724d;fill-opacity:1;stroke:none;stroke-width:1.12399995;stroke-miterlimit:100;stroke-dasharray:none;stroke-opacity:1"
       id="path5671"
       d="m 12.110149,163.49133 c -0.02237,-0.0867 -0.01419,-0.17607 0.0038,-0.26273 0.0061,-0.0295 0.01317,-0.0588 0.02203,-0.0875 0.0078,-0.0252 0.01851,-0.0494 0.02776,-0.074 0.0065,-0.0257 0.0131,-0.0514 0.01936,-0.0772 0.0068,-0.0281 0.01223,-0.0566 0.01988,-0.0846 0.006,-0.022 0.04407,-0.13747 0.05079,-0.16015 0.01671,-0.0564 0.03164,-0.11335 0.04814,-0.16984 0.0089,-0.0253 0.02153,-0.0496 0.02655,-0.0759 0.006,-0.0316 0.0032,-0.0644 0.0063,-0.0964 0.0034,-0.0357 0.0087,-0.0711 0.01305,-0.10668 0.0057,-0.0367 0.01343,-0.0731 0.01723,-0.11001 0.0043,-0.0416 0.0042,-0.0834 0.007,-0.12512 0.0031,-0.0459 0.0071,-0.0918 0.01066,-0.13774 0.01122,-0.11229 0.04381,-0.21975 0.07786,-0.32663 0.0084,-0.0263 0.01498,-0.0532 0.02523,-0.0788 0.02058,-0.0514 0.02943,-0.0585 0.05972,-0.0991 0.03419,-0.0418 0.03594,-0.0491 0.07851,-0.0816 0.005,-0.004 0.01067,-0.007 0.01686,-0.008 0.0024,-3.4e-4 -0.0022,0.005 -0.0037,0.006 -0.0091,0.0115 -0.0187,0.0225 -0.02805,0.0337 0.0094,-0.0171 0.251585,0.11569 0.242194,0.13282 l 0,0 c -0.01134,0.0142 -0.02221,0.0288 -0.03403,0.0425 -0.0037,0.004 -0.0085,0.008 -0.01252,0.0118 -6.52e-4,6.7e-4 0.0018,-6.8e-4 0.0025,-0.001 0.01608,-0.0169 0.02487,-0.0277 0.03945,-0.0449 0.0027,0.006 0.0068,0.0122 0.0082,0.0189 0.0078,0.037 0.0037,0.0707 0.0052,0.10875 0.0012,0.0304 0.0048,0.0606 0.0058,0.091 0.004,0.12341 6.03e-4,0.11604 -0.01019,0.2461 -0.08392,0.4613 0.03294,-0.17236 -0.05398,0.27172 -0.02121,0.10836 -0.01712,0.13183 -0.05078,0.23794 -0.01165,0.0367 -0.02983,0.0711 -0.04169,0.10776 -0.0088,0.0273 -0.01351,0.0558 -0.02027,0.0838 -0.0095,0.0284 -0.01849,0.0569 -0.02837,0.0851 -0.0092,0.0263 -0.0203,0.052 -0.02894,0.0785 -0.01739,0.0534 -0.02685,0.1027 -0.04306,0.15651 -0.0082,0.0273 -0.01835,0.0539 -0.02698,0.081 -0.0083,0.0261 -0.01588,0.0524 -0.02382,0.0786 -0.005,0.0254 -0.0086,0.0512 -0.01508,0.0763 -0.01059,0.041 -0.03695,0.11426 -0.05299,0.15397 -0.009,0.0222 -0.01731,0.0449 -0.02888,0.0659 -0.01232,0.0224 -0.03347,0.0392 -0.04303,0.0634 -0.0017,0.0203 -0.289274,-0.004 -0.287568,-0.0241 z"
       inkscape:connector-curvature="0" />
    <path
       style="opacity:0.6;fill:#aa724d;fill-opacity:1;stroke:none;stroke-width:1.12399995;stroke-miterlimit:100;stroke-dasharray:none;stroke-opacity:1"
       id="path5677"
       d="m 12.013231,163.03506 c -0.0014,-0.005 -0.0038,-0.0109 -0.0042,-0.0166 -0.0032,-0.0412 0.0066,-0.0792 0.01846,-0.11817 0.01423,-0.0468 0.012,-0.0385 0.02981,-0.0847 0.02993,-0.0693 0.07388,-0.12248 0.132576,-0.16888 0.0041,-0.002 0.0076,-0.007 0.01231,-0.008 0.003,-6.1e-4 -0.0021,0.006 -0.0061,0.0135 -0.0062,0.0119 -0.01171,0.0279 -0.02092,0.0384 0.0013,-0.0121 0.0018,-0.0243 0.0038,-0.0363 0.0018,-0.0107 0.005,-0.0211 0.0076,-0.0316 0.0072,-0.0293 0.01257,-0.0515 0.02217,-0.0805 0.005,-0.0152 0.01185,-0.0299 0.01643,-0.0453 0.0057,-0.0192 0.0097,-0.039 0.01451,-0.0585 0.02715,-0.0777 0.05168,-0.15632 0.08159,-0.23302 0.0062,-0.016 0.01473,-0.0312 0.01955,-0.0477 0.0057,-0.0194 0.0079,-0.0396 0.01178,-0.0594 0.01428,-0.065 0.03775,-0.12678 0.06787,-0.18595 0.02243,-0.0441 0.04832,-0.0867 0.07185,-0.13019 0.02653,-0.0471 0.01295,-0.0241 0.04068,-0.0691 0.0089,-0.021 0.306186,0.10448 0.297311,0.12551 l 0,0 c -0.01813,0.0444 -0.0085,0.0212 -0.02914,0.0694 -0.0084,0.0186 -0.02688,0.0586 -0.03447,0.0781 -0.02442,0.0627 -0.04324,0.12752 -0.06726,0.19039 -0.0063,0.018 -0.01449,0.0354 -0.01884,0.0539 -0.0095,0.0406 -0.0035,0.0841 -0.02029,0.12346 -0.01841,0.0747 -0.04659,0.14675 -0.08158,0.21519 -0.01324,0.0191 -0.02666,0.0381 -0.03971,0.0574 -0.0091,0.0133 -0.01721,0.0273 -0.02661,0.0404 -0.01563,0.0218 -0.02296,0.0286 -0.0392,0.0467 -0.0027,0.003 -0.0043,0.007 -0.008,0.009 -0.0019,9e-4 -0.0039,-0.002 -0.0058,-0.003 -0.01181,0.046 -0.02771,0.0918 -0.06303,0.1255 0.0088,-0.008 -0.0023,0.008 -0.0027,0.009 -0.0091,0.0213 -0.01548,0.0439 -0.02704,0.0642 -0.0091,0.0213 -0.01707,0.0389 -0.02487,0.0608 -0.01055,0.0297 -0.009,0.0337 -0.02259,0.0625 -0.0042,0.009 -0.0098,0.0173 -0.01447,0.0261 -0.0044,0.008 -0.0084,0.0167 -0.01262,0.0251 -0.0041,0.0197 -0.283048,-0.0385 -0.278931,-0.0582 z"
       inkscape:connector-curvature="0" />
    <path
       style="opacity:0.6;fill:#aa724d;fill-opacity:1;stroke:none;stroke-width:1.12399995;stroke-miterlimit:100;stroke-dasharray:none;stroke-opacity:1"
       id="path5679"
       d="m 12.097467,162.88705 c -0.0063,-0.0626 0.01977,-0.11939 0.0396,-0.17694 0.01346,-0.0391 0.01775,-0.0564 0.02886,-0.0958 0.01351,-0.10393 0.04089,-0.20568 0.08362,-0.30137 0.01306,-0.0347 0.04067,-0.0665 0.0415,-0.10503 -2.98e-4,-0.004 -8.19e-4,-0.007 -8.93e-4,-0.0107 -4.08e-4,-0.0198 0.0014,-0.005 5.42e-4,-0.0247 -7.33e-4,-0.0176 -0.0027,-0.0353 -0.0044,-0.0528 -0.0012,-0.0393 -0.003,-0.079 9.78e-4,-0.11824 1.24e-4,-0.005 5.77e-4,-0.0107 3.73e-4,-0.0161 -2.28e-4,-0.006 -0.0018,-0.0119 -0.0017,-0.0179 7.37e-4,-0.0351 0.0094,-0.0671 0.02001,-0.10024 0.0069,-0.023 0.0033,-0.0131 0.0109,-0.032 0.0025,-0.006 0.0033,-0.006 0.0011,-0.0116 0.0017,-0.0307 2.6e-5,-0.0133 0.0065,-0.0521 0.0036,-0.0197 0.282944,0.0311 0.279347,0.0509 l 0,0 c 0.001,-0.0129 4.35e-4,-0.0156 0.0014,-0.008 -0.0011,0.0372 -0.0023,0.0739 -0.01145,0.11026 -0.0024,0.0135 -0.0035,0.0295 -0.0082,0.0425 -6.28e-4,0.002 -0.0026,0.003 -0.003,0.005 -0.0026,0.0119 -0.0024,0.0246 -0.0028,0.0366 0.0016,0.0312 -0.0015,0.0624 0.0019,0.0935 0.002,0.0462 0.01198,0.0924 0.0045,0.13858 -0.0075,0.0458 -0.02161,0.0905 -0.0212,0.13739 -0.0045,0.0603 -0.01425,0.11967 -0.02408,0.17927 -0.0035,0.0212 -0.0058,0.0425 -0.01019,0.0635 -0.0047,0.0224 -0.01147,0.0444 -0.01721,0.0666 -0.0051,0.0221 -0.0092,0.0444 -0.01527,0.0663 -0.02221,0.0804 -0.05423,0.16645 -0.111893,0.22874 -0.009,0.01 -0.02057,0.0165 -0.03085,0.0248 -0.0085,0.0182 -0.26644,-0.10196 -0.25794,-0.1202 z"
       inkscape:connector-curvature="0" />
    <path
       style="opacity:0.6;fill:#aa724d;fill-opacity:1;stroke:none;stroke-width:1.12399995;stroke-miterlimit:100;stroke-dasharray:none;stroke-opacity:1"
       id="path5681"
       d="m 12.032346,162.868 c -0.0112,-0.045 -0.0031,-0.0918 0.01629,-0.13326 0.0081,-0.008 2.06e-4,-0.002 -6.88e-4,-0.0206 -4.06e-4,-0.008 4.26e-4,-0.0171 6.38e-4,-0.0256 -0.0015,-0.0341 0.01533,-0.0641 0.02235,-0.0964 0.0045,0.002 0.009,-0.0297 0.01496,-0.0348 1.56e-4,-1.4e-4 -0.001,0.007 -0.0017,0.0107 0.0037,-0.0263 2.37e-4,-0.053 0.0043,-0.0793 0.0013,-0.009 0.0035,-0.0168 0.0053,-0.0251 0.0014,-0.0136 0.0099,-0.0247 0.01468,-0.0369 0.0025,-0.006 0.0036,-0.0157 0.0077,-0.0217 3e-6,7.6e-4 7.2e-5,0.006 -2.15e-4,0.006 -0.0054,2.2e-4 -0.01353,-0.0428 -0.01361,-0.0434 -0.0012,-0.008 -0.0012,-0.0167 -0.0018,-0.025 0.0019,-0.034 0.0072,-0.0803 0.02764,-0.10937 0.0042,-0.011 0.0085,-0.022 0.0127,-0.0331 1.52e-4,-0.002 0.0021,-0.005 4.56e-4,-0.005 -0.0018,-7e-4 -0.0042,0.006 -0.0044,0.004 -9.73e-4,-0.01 0.006,-0.0136 0.0034,-0.0263 -0.0041,-0.0394 0.01141,-0.0884 0.03064,-0.12273 0.0015,-0.002 0.0025,-0.006 0.0045,-0.005 0.0022,10e-4 -0.0012,0.006 7.37e-4,0.007 0.0017,0.001 -1.28e-4,-0.004 2.18e-4,-0.006 0.0029,-0.0175 0.0062,-0.0341 0.01082,-0.0511 0.0022,-0.007 0.0041,-0.0134 0.0065,-0.02 0.0016,-0.004 0.0035,-0.009 0.0054,-0.0128 0.0011,-0.002 0.0034,-0.004 0.004,-0.007 4.51e-4,-0.002 0.0078,-0.0389 0.008,-0.0398 0.0039,-0.0129 0.0049,-0.0181 0.01015,-0.0297 0.0011,-0.002 0.0024,-0.005 0.0039,-0.007 2.1e-4,-3.2e-4 9.75e-4,5e-5 0.0011,-3.1e-4 0.0022,-0.006 0.0034,-0.0132 0.0054,-0.0197 -3.48e-4,-0.0229 0.01006,-0.0438 0.01396,-0.0658 0.0085,-0.0481 -0.0037,0.005 0.0069,-0.0386 0.0017,-0.007 0.0035,-0.014 0.0051,-0.021 0.0017,-0.008 0.0026,-0.0155 0.0046,-0.0232 0.0052,-0.0208 0.01419,-0.04 0.02076,-0.0602 0.0067,-0.0172 0.0042,-0.0318 0.007,-0.0512 0.0039,-0.0265 0.007,-0.032 0.01529,-0.0544 0.0062,-0.004 0.0045,-0.012 0.0083,-0.017 1.73e-4,-2.3e-4 8.23e-4,4e-4 8.53e-4,1.1e-4 0.0038,-0.0357 -0.0039,0.004 0.0049,-0.0469 0.0018,-0.0102 0.0043,-0.0203 0.0064,-0.0305 0.0036,-0.0258 0.01442,-0.0486 0.02553,-0.0718 0.0128,-0.0267 0.02283,-0.0445 0.04057,-0.0685 0.0011,-3.3e-4 0.0025,-1.5e-4 0.0032,-0.001 0.03961,-0.0508 -0.0022,2.3e-4 0.04208,-0.0461 0.003,-0.003 -0.0067,0.006 -0.01025,0.008 -0.0011,8.3e-4 -0.0028,6.2e-4 -0.0041,0.001 0.01185,-0.0147 0.01976,-0.0323 0.02761,-0.0499 0.0038,-0.007 0.007,-0.0141 0.01132,-0.0207 0.01282,-0.0198 0.02293,-0.0317 0.03983,-0.048 7.94e-4,-7.6e-4 0.0032,-0.002 0.0031,-0.001 -6.1e-5,0.002 -0.0039,0.005 -0.0054,0.007 -0.0039,-0.006 -6.01e-4,1.5e-4 -5.47e-4,-0.0136 6.7e-5,-0.017 -0.0029,-0.009 -0.001,-0.029 0.0014,-0.0157 0.0048,-0.0311 0.007,-0.0467 0.002,-0.008 0.004,-0.0167 0.0059,-0.0251 0.0022,-0.0212 0.301883,0.0101 0.299668,0.0313 l 0,0 c 1.49e-4,0.006 2.97e-4,0.0127 4.46e-4,0.019 -0.0011,0.016 -0.0025,0.0436 -0.0052,0.0595 -0.0078,0.0459 -0.02395,0.0889 -0.04772,0.12884 -0.01496,0.0238 -0.01396,0.0237 -0.03143,0.0454 -0.0036,0.004 -0.0068,0.01 -0.0115,0.0131 -0.0044,0.003 0.0074,-0.009 0.0073,-0.0148 -3.8e-5,-0.001 -0.002,0.002 -0.0031,0.004 -0.01041,0.0171 0.0016,-0.004 -0.01222,0.0281 -0.01013,0.0233 -0.02676,0.0521 -0.04495,0.0694 -0.0033,0.004 -0.04613,0.0483 -0.05084,0.0467 -0.0074,-0.003 0.01087,-0.0112 0.01573,-0.0173 0.0049,-0.006 0.0079,-0.0136 0.01338,-0.0192 0.0023,-0.002 -0.0023,0.006 -0.0034,0.009 0.0061,-0.007 0.009,-0.0111 0.0091,-0.01 4.83e-4,0.005 -0.0017,0.01 -0.0022,0.0143 -7e-4,0.006 -4.02e-4,0.013 -0.0015,0.0194 -0.0053,0.0314 -0.0079,0.034 -0.01913,0.064 -0.0039,0.007 -0.0077,0.0145 -0.01159,0.0217 -0.0032,0.005 -0.0068,0.009 -0.0096,0.0134 -0.013,0.022 -0.01118,0.0492 -0.02376,0.0716 -0.0012,0.002 -0.0016,0.006 -0.0037,0.006 -0.0018,-5.8e-4 -0.0033,-0.0224 -0.0033,-0.0196 -2.5e-4,0.0182 0.0034,0.0368 0.0017,0.0551 1.75e-4,0.0148 6.48e-4,0.0308 -8.14e-4,0.0453 -0.0038,0.0381 -0.01633,0.0735 -0.03247,0.10794 -0.02425,0.0558 0.0052,-0.008 -0.01827,0.0332 -0.0021,0.004 -0.0025,0.008 -0.0045,0.0116 -3.35e-4,6e-4 -5.09e-4,-0.002 -8.2e-4,-0.002 -0.0013,0.002 -0.0012,0.006 -0.0024,0.008 -2.93e-4,6.5e-4 -0.0012,7.4e-4 -0.0018,0.001 5.65e-4,0.0356 -0.0024,0.0716 -0.01519,0.10512 -0.0042,0.008 -0.0096,0.0158 -0.01248,0.0245 -0.0068,0.0207 -0.0084,0.0455 -0.02371,0.0623 -0.001,9.6e-4 -0.0024,0.002 -0.0031,0.003 -0.0021,0.004 -0.0015,0.009 -0.0051,0.0114 -0.0023,0.001 0.0021,-0.007 -2.44e-4,-0.008 -0.002,-0.001 -0.0018,0.004 -0.0021,0.007 -0.0012,0.01 -0.0012,0.0198 -0.0013,0.0294 -1.87e-4,0.036 -0.01083,0.0702 -0.01789,0.10534 -0.0064,0.0209 -0.0089,0.0326 -0.01803,0.0515 -0.0018,0.004 -0.0046,0.007 -0.0066,0.0107 -0.0043,0.008 -0.0077,0.0159 -0.01235,0.0233 -0.0016,0.003 -0.0068,0.01 -0.0064,0.006 0.0012,-0.009 0.006,-0.0179 0.0091,-0.0269 0.0011,0.006 0.0028,0.003 0.005,0.008 0.0042,0.0106 0.0033,0.0226 0.0041,0.0336 -9e-5,0.008 3.48e-4,0.0161 -2.69e-4,0.0241 -0.0015,0.02 -0.004,0.023 -0.0073,0.0417 -0.0044,0.0248 -0.0015,0.0124 -0.0033,0.0372 -4.42e-4,0.006 -0.0013,0.0118 -0.002,0.0178 -0.0039,0.0228 -0.0086,0.0453 -0.01269,0.0681 -0.0043,0.0101 -0.0019,0.004 -0.0064,0.0192 -5.55e-4,0.001 -0.0024,0.002 -0.0028,0.004 -0.0025,0.008 -0.0025,0.0147 -0.0023,0.0224 -8.54e-4,0.0344 -0.0039,0.074 -0.02186,0.10453 -3.06e-4,5.2e-4 -4.83e-4,-0.001 -7.25e-4,-0.002 -0.003,0.006 -0.01936,0.0487 -0.01,0.0171 7.49e-4,-0.002 -6.26e-4,0.007 -0.0018,0.008 -2.04e-4,-0.005 -3.03e-4,-0.01 -4.39e-4,0.01 -1.22e-4,0.0174 2.61e-4,0.035 6.69e-4,0.0524 1.23e-4,0.005 4.36e-4,0.0106 6.54e-4,0.0159 0.0045,0.0409 -3.1e-4,0.0824 -0.01698,0.1204 -0.0019,0.0202 -0.287217,-0.006 -0.285336,-0.0266 z"
       inkscape:connector-curvature="0" />
    <path
       style="opacity:0.6;fill:#aa724d;fill-opacity:1;stroke:none;stroke-width:1.12399995;stroke-miterlimit:100;stroke-dasharray:none;stroke-opacity:1"
       id="path5685"
       d="m 12.04559,162.87459 c -0.0014,-0.008 -0.0046,-0.0148 -0.0041,-0.0224 0.001,-0.0152 0.0057,-0.0298 0.0087,-0.0447 0.0043,-0.0218 0.0087,-0.0436 0.01314,-0.0654 0.0063,-0.0305 0.01271,-0.0609 0.01906,-0.0914 0.0078,-0.0347 0.01617,-0.0694 0.0235,-0.10421 0.009,-0.0426 0.01693,-0.0854 0.02539,-0.12817 0.01964,-0.1474 0.02553,-0.2234 0.06412,-0.37118 0.01731,-0.0663 0.03947,-0.1313 0.06181,-0.19609 0.06229,-0.18061 0.140712,-0.35406 0.21981,-0.5277 0.05612,-0.15841 0.10811,-0.31921 0.179355,-0.47179 0.0331,-0.0709 0.06652,-0.13204 0.113732,-0.19357 0.01183,-0.0154 0.02643,-0.0285 0.03964,-0.0427 0.02279,-0.0111 0.02178,-0.0194 0.02449,9.9e-4 4.59e-4,0.004 -0.0017,-0.007 -0.0022,-0.0102 -6.19e-4,-0.004 -8.62e-4,-0.008 -0.0013,-0.0115 -0.004,-0.0205 0.286387,-0.0771 0.290386,-0.0565 l 0,0 c 0.0024,0.008 0.0053,0.0163 0.0071,0.0246 0.0094,0.0433 0.0058,0.0888 0.02389,0.13036 0.0035,0.0216 0.009,0.043 0.01038,0.0648 0.0085,0.13231 -0.02186,0.26278 -0.05947,0.38861 -0.01717,0.0575 -0.03664,0.11425 -0.05749,0.17048 -0.02125,0.0573 -0.04582,0.11334 -0.06873,0.17 -0.01187,0.0354 -0.100478,0.29982 -0.110812,0.3313 -0.02073,0.0631 -0.09987,0.31244 -0.122308,0.37161 -0.05549,0.14631 -0.08998,0.2081 -0.157788,0.34492 -0.01223,0.0295 -0.08831,0.21468 -0.104997,0.2481 -0.01686,0.0338 -0.03672,0.066 -0.05679,0.098 -0.0308,0.0491 -0.06172,0.0939 -0.103712,0.13376 -0.01443,0.0137 -0.03135,0.0245 -0.04703,0.0368 -0.01249,0.0161 -0.240276,-0.16058 -0.227782,-0.17669 z"
       inkscape:connector-curvature="0" />
    <path
       style="opacity:0.6;fill:#aa724d;fill-opacity:1;stroke:none;stroke-width:1.12399995;stroke-miterlimit:100;stroke-dasharray:none;stroke-opacity:1"
       id="path5687"
       d="m 12.143085,163.49594 c -0.03085,-0.10593 -0.03286,-0.21714 -0.02504,-0.32652 0.0034,-0.047 0.01019,-0.0937 0.01511,-0.14058 0.0062,-0.0591 0.01215,-0.11815 0.01823,-0.17722 0.03392,-0.18876 0.08282,-0.37466 0.137855,-0.55826 0.01849,-0.0617 0.04282,-0.12171 0.05843,-0.1842 0.01693,-0.0678 0.02533,-0.13744 0.039,-0.20597 0.01502,-0.0753 0.03139,-0.15025 0.04708,-0.22537 0.0301,-0.16087 0.07904,-0.31737 0.113412,-0.47723 0.07429,-0.34548 0.02354,-0.20712 0.123259,-0.54784 0.06615,-0.22602 0.0795,-0.24427 0.164187,-0.45002 0.04143,-0.0826 0.07561,-0.16282 0.130935,-0.23671 0.01048,-0.014 0.02115,-0.0308 0.03771,-0.0365 0.0084,-0.003 0.01489,0.0101 0.0211,0.0165 0.03247,0.0335 0.05016,0.0893 0.09474,0.10297 0.04685,0.0144 0.09604,-0.0197 0.14406,-0.0295 -0.01322,0.0165 -0.246171,-0.17049 -0.23295,-0.18696 l 0,0 c 0.05785,-0.0193 0.113317,-0.0674 0.173548,-0.0579 0.05238,0.008 0.08448,0.0651 0.120046,0.10441 0.01676,0.0185 0.02432,0.0438 0.03454,0.0666 0.0118,0.0263 0.02405,0.0528 0.03142,0.0807 0.03083,0.11675 0.02308,0.16878 0.02618,0.29685 -0.02389,0.23761 -0.01585,0.2363 -0.07616,0.48136 -0.09078,0.36888 -0.05537,0.17303 -0.169202,0.53165 -0.04995,0.15736 -0.08013,0.32061 -0.136965,0.47599 -0.02459,0.075 -0.04917,0.15006 -0.07376,0.22509 -0.02581,0.0698 -0.05364,0.13882 -0.07741,0.2093 -0.02012,0.0597 -0.0357,0.12076 -0.05419,0.18095 -0.05442,0.17704 -0.112096,0.35309 -0.169305,0.52925 -0.02091,0.0498 -0.04413,0.0988 -0.06273,0.1495 -0.01498,0.0409 -0.02503,0.0834 -0.03789,0.125 -0.02864,0.0927 -0.05703,0.18739 -0.103535,0.27317 -0.0068,0.0125 -0.01609,0.0236 -0.02414,0.0354 -0.0031,0.0203 -0.290639,-0.0234 -0.287544,-0.0438 z"
       inkscape:connector-curvature="0" />
  </g>
</svg>
