<?xml version="1.0" encoding="UTF-8" standalone="no"?>
<!-- Created with Inkscape (http://www.inkscape.org/) -->

<svg
   xmlns:dc="http://purl.org/dc/elements/1.1/"
   xmlns:cc="http://creativecommons.org/ns#"
   xmlns:rdf="http://www.w3.org/1999/02/22-rdf-syntax-ns#"
   xmlns:svg="http://www.w3.org/2000/svg"
   xmlns="http://www.w3.org/2000/svg"
   xmlns:sodipodi="http://sodipodi.sourceforge.net/DTD/sodipodi-0.dtd"
   xmlns:inkscape="http://www.inkscape.org/namespaces/inkscape"
   width="300"
   height="500"
   id="svg2"
   version="1.1"
   inkscape:version="0.91 r13725"
   sodipodi:docname="Measuring_cylinder.svg">
  <defs
     id="defs4" />
  <sodipodi:namedview
     id="base"
     pagecolor="#ffffff"
     bordercolor="#666666"
     borderopacity="1.0"
     inkscape:pageopacity="0.0"
     inkscape:pageshadow="2"
     inkscape:zoom="1.5018948"
     inkscape:cx="134.34378"
     inkscape:cy="296.93707"
     inkscape:document-units="px"
     inkscape:current-layer="g3091"
     showgrid="false"
     inkscape:window-width="1920"
     inkscape:window-height="1018"
     inkscape:window-x="-8"
     inkscape:window-y="-8"
     inkscape:window-maximized="1" />
  <metadata
     id="metadata7">
    <rdf:RDF>
      <cc:Work
         rdf:about="">
        <dc:format>image/svg+xml</dc:format>
        <dc:type
           rdf:resource="http://purl.org/dc/dcmitype/StillImage" />
        <dc:title></dc:title>
      </cc:Work>
    </rdf:RDF>
  </metadata>
  <g
     inkscape:label="Ebene 1"
     inkscape:groupmode="layer"
     id="layer1"
     transform="translate(0,-552.36218)">
    <g
       id="g3091"
       transform="translate(-3.7664783,-7.5329562)">
      <path
         d="m 127.34316,605.93238 0.1883,0 m 0,0 0.27645,0 m 0,0 0.27644,0 m 0,0 0.27645,0 m 0,0 0.27644,0 m 0,0 0.18831,0 m 0,0 0.28045,0 m 0,0 0.10016,0 m 0,0 0.0881,0 m 0,0 0.0922,0 m 0,0 0.0922,0 m 0,0 0.0922,0 m 0,0 0.0961,0 m 0.46475,0 0.0922,0 m 0,0 0.0881,0 m 0,0 0.10016,0 m 0,0 0.0881,0 m 0,0 0.0962,0 m 46.60704,0 0.18429,0 m 0,0 0.0922,0 m 0,0 0.1883,0 m 0,0 0.0922,0 m 0,0 0.0922,0 m 0.7452,0 0.0922,0 m 0,0 0.0961,0 m 0,0 0.0922,0 m 0,0 0.0922,0 m 0,0 0.0922,0 m 0,0 0.0922,0 m 0,0 0.0961,0 m -1.02565,-1.76685 -0.0922,0 m 0,0 -0.1883,0 m 0,0 -0.27645,0.0881 m 0,0 -0.1883,0.1843 m -0.46475,0.65305 0,0.1843 m 0,0.37661 0.18831,0.28045 m 2.04729,0 -0.0961,0 m 0,0 -0.0922,0 m 0,0 -0.0922,0 m 0,0 -0.0922,0 m 0,0 -0.0922,0 m 0,0 -0.1883,0 m 0,0 -0.0881,0 m 0,0 -0.10016,0 m 0,0 -0.1843,0 m 0,0 -0.0922,0 m 0,0 -0.1883,0 m 0,0 -0.1843,0 m 0,0 -0.18429,0 m 0,0 -0.18831,0 m 0,0 -0.18429,0 m 0,0 -0.18831,0 m 0,0 -0.28045,0 m 0,0 -0.1843,0 m 0,0 -0.27644,0 m 0,0 -0.1843,0 m 0,0 -0.28045,0 m 0,0 -0.28446,0 m 0,0 -0.27244,0 m 0,0 -0.28445,0 m 0,0 -0.27645,0 m 0,0 -0.27244,0 m 0,0 -0.28446,0 m 0,0 -0.3726,0 m 0,0 -0.37259,0 m 0,0 -0.28046,0 m 0,0 -0.36859,0 m 0,0 -0.37661,0 m 0,0 -0.28045,0 m 0,0 -0.46475,0 m 0,0 -0.27644,0 m 0,0 -0.46876,0 m 0,0 -0.36859,0 m 0,0 -0.37661,0 m 0,0 -0.46074,0 m 0,0 -0.3766,0 m 0,0 -0.3686,0 m 0,0 -0.46475,0 m 0,0 -0.46474,0 m 0,0 -0.3726,0 m 0,0 -0.46475,0 m 0,0 -0.46475,0 m 0,0 -0.46475,0 m 0,0 -0.46475,0 m 0,0 -0.46474,0 m 0,0 -0.46475,0 m 0,0 -0.46475,0 m 0,0 -0.46475,0 m 0,0 -0.5609,0 m 0,0 -0.46475,0 m 0,0 -0.46475,0 m 0,0 -0.5609,0 m 0,0 -0.46475,0 m 0,0 -0.5569,0 m 0,0 -0.46875,0 m 0,0 -0.55289,0 m 0,0 -0.46475,0 m 0,0 -0.5569,0 m 0,0 -0.5609,0 m 0,0 -0.5569,0 m 0,0 -0.46474,0 m 0,0 -0.56491,0 m 0,0 -0.55289,0 m 0,0 -0.56091,0 m 0,0 -0.46074,0 m 0,0 -0.5569,0 m 0,0 -0.5609,0 m 0,0 -0.5569,0 m 0,0 -0.5609,0 m 0,0 -0.55689,0 m 0,0 -0.56091,0 m 0,0 -0.55289,0 m 0,0 -0.56491,0 m 0,0 -0.55289,0 m 0,0 -0.55689,0 m 0,0 -0.56491,0 m 0,0 -0.46475,0 m 0,0 -0.5569,0 m 0,0 -0.5569,0 m 0,0 -0.55289,0 m 0,0 -0.56491,0 m 0,0 -0.55689,0 m 0,0 -0.5569,0 m 0,0 -0.55689,0 m 0,0 -0.56091,0 m 0,0 -0.55689,0 m 0,0 -0.46475,0 m 0,0 -0.56091,0 m 0,0 -0.55289,0 m 0,0 -0.46474,0 m 0,0 -0.56491,0 m 0,0 -0.55289,0 m 0,0 -0.46876,0 m 0,0 -0.55289,0 m 0,0 -0.5609,0 m 0,0 -0.46475,0 m 0,0 -0.46074,0 m 0,0 -0.56491,0 m 0,0 -0.46475,0 m 0,0 -0.5569,0 m 0,0 -0.46875,0 m 0,0 -0.46475,0 m 0,0 -0.46074,0 m 0,0 -0.46475,0 m 0,0 -0.46475,0 m 0,0 -0.46875,0 m 0,0 -0.46475,0 m 0,0 -0.46475,0 m 0,0 -0.46475,0 m 0,0 -0.3726,0 m 0,0 -0.46475,0 m 0,0 -0.37259,0 m 0,0 -0.46876,0 m 0,0 -0.36459,0 m 0,0 -0.46875,0 m 0,0 -0.3726,0 m 0,0 -0.28045,0 m 0,0 -0.18831,0 m 0,0 -0.27644,0 m 0,0 -0.27645,0 m 0,0 -0.27644,0 m 0,0 -0.27645,0 m 0,0 -0.1883,0 m 0.27645,-1.76685 0.74119,0 m 0,0 0.7452,0 m 0,0 0.74119,0 m 49.58784,1.10979 0,0.37661 m 0,0 -0.1843,0.28045 m -49.40354,-1.76685 0.74921,0 m 0,0 0.83334,0 m 0,0 0.83735,0 m 0,0 0.84135,0 m 0,0 0.83735,0 m 0,0 0.92549,0 m 0,0 0.9335,0 m 0,0 0.9295,0 m 0,0 0.9295,0 m 0,0 1.02565,0 m 0,0 0.92549,0 m 0,0 1.02966,0"
         style="fill:none;stroke:#1a1a18;stroke-width:3.60580516;stroke-linecap:round;stroke-linejoin:round;stroke-miterlimit:10;stroke-dasharray:none;stroke-opacity:1"
         id="path2406"
         inkscape:connector-curvature="0" />
      <path
         d="m 140.64293,604.16509 1.02565,0 m 0,0 1.02165,0 m 0,0 1.02164,0 m 0,0 1.1138,0 m 0,0 1.02164,0 m 0,0 1.12181,0 m 0,0 1.01764,0 m 0,0 1.02965,0 m 0,0 1.1178,0 m 0,0 1.10979,0 m 0,0 1.02966,0 m 0,0 1.11379,0 m 0,0 1.02165,0 m 0,0 1.02565,0 m 0,0 1.11379,0 m 0,0 1.02165,0 m 0,0 1.02565,0 m 0,0 1.02966,0 m 0,0 1.01763,0 m 0,0 0.93351,0 m 0,0 1.01764,0 m 0,0 0.9335,0 m 0,0 0.92549,0 m 0,0 0.93751,0 m 0,0 0.83735,0 m 0,0 0.83334,0 m 0,0 0.9335,0 m 0,0 0.7452,0 m 0,0 0.83735,0 m 0,0 0.74119,0 m 0,0 0.74119,0 m 0,0 0.65306,0 m 0,0 0.65305,0 m 0,0 0.64504,0 m 0,0 0.65705,0 m 0,0 0.56091,0 m 0,0 0.46074,0 m 0,0 0.5609,0 m 0,0 0.46475,0 m 0,0 0.3726,0 m 0,0 0.3726,0 m 0,0 0.3726,0 m 0,0 0.3726,0 m 0,0 0.27644,0 m 0,0 0.1843,0 m 0,0 0.1843,0 m 0,0 0.19231,0 m 0,0 0.0881,0 m 0,0 0.0961,0 m 0,0 0.28046,0 m 0,0 0.27243,0.0881 m 0,0 0.19231,0.0962 m 0,0 0.1843,0.1883 m 0,0 0.1843,0.27645 m 0,0 0.0961,0.18429 m 0,0 0,0.28045 m -49.58783,-1.11379 0.7492,0 m 0,0 0.82934,0 m 0,0 0.7492,0 m 0,0 0.83735,0 m 0,0 0.83735,0 m 0,0 0.9295,0 m 0,0 0.83334,0 m 0,0 0.92949,0 m 0,0 0.9295,0 m 0,0 0.93751,0 m 0,0 0.9295,0 m 0,0 1.02164,0 m 0,0 0.9295,0 m 0,0 1.02565,0 m 0,0 1.02164,0 m 0,0 1.02566,0 m 0,0 1.02164,0 m 0,0 1.02565,0 m 0,0 1.02165,0 m 0,0 1.02164,0 m 0,0 1.02565,0 m 0,0 1.1138,0 m 0,0 1.02565,0 m 0,0 1.02565,0 m 0,0 1.01764,0 m 0,0 1.02565,0 m 0,0 1.02565,0 m 0,0 1.02565,0 m 0,0 1.01764,0 m 0,0 1.02565,0 m 0,0 0.9295,0 m 0,0 1.02164,0 m 0,0 0.9295,0 m 0,0 0.9295,0 m 0,0 0.9335,0 m 0,0 0.83735,0 m 0,0 0.9335,0 m 0,0 0.82933,0 m 0,0 0.84136,0 m 0,0 0.84135,0 m 0,0 0.83735,0 m 0,0 0.74119,0 m 0,0 0.7412,0 m 0,0 0.7452,0 m 0,0 0.65305,0 m 0,0 0.64904,0 m 0,0 0.65306,0 m 0,0 0.55689,0 m 0,0 0.56091,0 m 0,0 0.55689,0 m 0,0 0.46475,0 m 0,0 0.55289,0 m 0,0 0.3726,0 m 0,0 0.38061,0 m 0,0 0.3686,0 m 0,0 0.3726,0 m 0,0 0.28045,0 m 0,0 0.18429,0 m 0,0 0.28046,0 m 0,0 0.18429,0 m 0,0 0.0962,0 m 0,0 0.0881,0 m 0,0 0.0961,0 m -50.60547,0 0.73719,0 m 0,0 0.7492,0 m 0,0 0.7412,0 m 49.39552,1.76284 0,374.99975 m -58.77863,-361.32574 0.28045,361.32574 m -0.0921,-360.66868 0,-0.19231 m 0,0 -0.0881,-0.27244 m 0,0 -0.10016,-0.19231 m 0,0 -7.06337,-9.49128 m 5.20834,370.81693 0.0922,0 m 0,0 0.0922,0 m 0,0 0.1883,0 m 0,0 0.18831,0 m 0,0 0.27644,0 m 0,0 0.36859,0 m 0,0 0.46475,0 m 0,0 0.46475,0 m 0,0 0.5609,0 m 0,0 0.64905,0 m 0,0 0.64904,0 m 0,0 0.7452,0 m 0,0 0.83335,0 m 0,0 0.83734,0 m 0,0 0.83334,0 m 0,0 0.93351,0 m 0,0 1.01764,0 m 0,0 1.01763,0 m 0,0 1.12181,0 m 0,0 1.1178,0 m 0,0 1.20594,0 m 0,0 1.20995,0 m 0,0 1.20594,0 m 0,0 1.3061,0 m 0,0 1.3021,0 m 0,0 1.39425,0 m 0,0 1.30209,0 m 0,0 1.39425,0 m 0,0 1.40225,0 m 0,0 1.38624,0 m 0,0 1.4904,0 m 0,0 1.39424,0 m 0,0 1.39825,0 m 0,0 1.48639,0 m 0,0 1.49441,0 m 0,0 1.39425,0 m 0,0 1.49039,0 m 0,0 1.39425,0 m 0,0 1.39424,0 m 0,0 1.39425,0 m 0,0 1.39424,0 m 0,0 1.39425,0 m 0,0 1.3061,0 m 0,0 1.3021,0 m 0,0 1.29809,0 m 0,0 1.20594,0 m 0,0 1.21395,0 m 0,0 1.20995,0 m 0,0 1.1178,0 m 0,0 1.11379,0 m 0,0 1.02566,0 m 0,0 1.02565,0 m 0,0 0.92949,0 m 0,0 0.92549,0 m 0,0 0.84536,0 m 0,0 0.7412,0 m 0,0 0.7452,0 m 0,0 0.7452,0 m 0,0 0.55689,0 m 0,0 0.55289,0 m 0,0 0.46475,0 m 0,0 0.46074,0 m 0,0 0.38062,0 m 0,0 0.27644,0 m 0,0 0.18831,0 m 0,0 0.18429,0 m 0,0 0.0922,0 m 0,0 0.0962,0 m 0,0 0.65305,0.0962 m 0,0 0.74119,0.0881 m 0,0 0.74119,0.10016 m 0,0 0.65706,0.27644 m 0,0 0.64905,0.28046 m 0,0 0.64904,0.28045 m 0,0 0.65305,0.36458 m 0,0 0.56091,0.46876 m 0,0 c 7.08686,6.31807 4.0801,17.52256 0.17302,17.47946 m -0.13437,0 c -0.27088,-0.01 -73.8692,-0.054 -74.13481,-0.1389 -4.01827,-1.28917 -7.10191,-11.20969 0.80616,-17.34056 m 0,0 0.64904,-0.46876 m 0,0 0.56091,-0.36458 m 0,0 0.64904,-0.28045 m 0,0 0.65305,-0.28046 m 0,0 0.7452,-0.27644 m 0,0 0.65305,-0.10016 m 0,0 0.73719,-0.0881 m 0,0 0.65305,-0.0962"
         style="fill:none;stroke:#1a1a18;stroke-width:3.60580516;stroke-linecap:round;stroke-linejoin:round;stroke-miterlimit:10;stroke-dasharray:none;stroke-opacity:1"
         id="path2418"
         inkscape:connector-curvature="0"
         sodipodi:nodetypes="cccccccccccccccccccccccccccccccccccccccccccccccccccccccccccccccccccccccccccccccccccccccccccccccccccccccccccccccccccccccccccccccccccccccccccccccccccccccccccccccccccccccccccccccccccccccccccccccccccccccccccccccccccccccccccccccccccccccccccccccccccccccccccccccccccccccccccccccccccccccccccccccccccccccccccccccccccccccccccccccccccccccccccccccccccccccccccccccccccccccccccccccccccccccccccccccccccccccccccccccccccccccccccsccccccccccccccccc" />
      <path
         d="m 127.62117,604.16509 c -5.29252,0 -13.00494,2.98881 -13.94245,3.54571 -0.92549,0.56491 -1.29809,0.91748 -1.20594,1.56652 0.0922,0.65706 0.83735,0.83334 1.6747,0.46475 0.83734,-0.3726 5.47681,-2.80852 13.38555,-3.81414"
         style="fill:none;stroke:#1a1a18;stroke-width:3.60580516;stroke-linecap:round;stroke-linejoin:round;stroke-miterlimit:10;stroke-dasharray:none;stroke-opacity:1"
         id="path2534"
         inkscape:connector-curvature="0" />
      <path
         style="fill:#cfcfcf;fill-opacity:0.9916389;stroke:none;stroke-width:1.12399995;stroke-miterlimit:100;stroke-dasharray:none;stroke-opacity:1"
         d=""
         id="path4281"
         inkscape:connector-curvature="0"
         transform="translate(0,552.36218)" />
      <path
         style="fill:#cfcfcf;fill-opacity:0.9916389;stroke:none;stroke-width:1.12399995;stroke-miterlimit:100;stroke-dasharray:none;stroke-opacity:1"
         d=""
         id="path4283"
         inkscape:connector-curvature="0"
         transform="translate(0,552.36218)" />
      <path
         style="fill:#cfcfcf;fill-opacity:0.9916389;stroke:none;stroke-width:1.12399995;stroke-miterlimit:100;stroke-dasharray:none;stroke-opacity:1"
         d=""
         id="path4285"
         inkscape:connector-curvature="0"
         transform="translate(0,552.36218)" />
      <path
         style="fill:#cfcfcf;fill-opacity:0.9916389;stroke:none;stroke-width:1.12399995;stroke-miterlimit:100;stroke-dasharray:none;stroke-opacity:1"
         d=""
         id="path4287"
         inkscape:connector-curvature="0"
         transform="translate(0,552.36218)" />
      <path
         style="fill:#bdd1e9;fill-opacity:0.9916389;stroke:none;stroke-width:1.12399995;stroke-miterlimit:100;stroke-dasharray:none;stroke-opacity:1;opacity:0.7"
         d="m 119.27202,371.42418 c -0.003,-26.27514 -0.19454,-107.39767 -0.42539,-180.27228 L 118.4269,58.652606 115.84574,55.034194 c -1.41964,-1.990127 -2.35179,-3.835559 -2.07145,-4.10096 0.28034,-0.265402 2.1371,-0.959183 4.12614,-1.541737 3.03217,-0.888068 7.7921,-1.059188 29.46278,-1.059188 l 25.84635,0 0,185.432431 0,185.43243 -26.96594,0 -26.96593,0 -0.006,-47.77299 z"
         id="path4473"
         inkscape:connector-curvature="0"
         transform="translate(3.7664783,559.89514)" />
      <path
         style="fill:#bdd1e9;fill-opacity:0.9916389;stroke:none;stroke-width:1.12399995;stroke-miterlimit:100;stroke-dasharray:none;stroke-opacity:1;opacity:0.7"
         d="m 108.40768,437.30276 c -2.80102,-3.09509 -1.88822,-8.71411 1.96521,-12.09746 l 2.33292,-2.04834 33.97737,0.18403 33.97737,0.18404 1.60923,1.99748 c 2.47024,3.06621 3.27459,6.76531 2.1717,9.98738 l -0.91162,2.6633 -37.01157,0.172 c -35.09789,0.16311 -37.06839,0.10921 -38.11061,-1.04243 z"
         id="path4475"
         inkscape:connector-curvature="0"
         transform="translate(3.7664783,559.89514)" />
      <path
         style="fill:#eeeef3;fill-rule:evenodd;stroke:none;stroke-width:1px;stroke-linecap:butt;stroke-linejoin:miter;stroke-opacity:1;fill-opacity:0.9916389;opacity:0.45"
         d="m 120.95178,611.79451 c 1.8539,2.44136 4.80173,4.88273 4.66078,7.32409 l 0.66583,353.55339 c 1.96826,1.08869 6.8496,0.74146 9.98738,0 l -2.6633,-352.22174 c -4.48926,-6.97069 -8.4425,-5.90109 -12.65069,-8.65574 z"
         id="path4477"
         inkscape:connector-curvature="0"
         sodipodi:nodetypes="cccccc" />
      <path
         style="fill:#ebedf0;fill-opacity:0.9916389;fill-rule:evenodd;stroke:none;stroke-width:1px;stroke-linecap:butt;stroke-linejoin:miter;stroke-opacity:1;opacity:0.45"
         d="m 118.6214,984.98976 c -5.40945,3.66204 -4.30944,7.67719 -4.68011,11.33923 1.09676,0.7107 5.18291,-0.12945 7.84278,-0.0202 0.64455,-7.63035 1.57577,-10.38719 2.6633,-10.48676 -1.94199,-1.01543 -3.88398,-0.60371 -5.82597,-0.83228 z"
         id="path4479"
         inkscape:connector-curvature="0"
         sodipodi:nodetypes="ccccc" />
    </g>
  </g>
</svg>
